<mxfile host="65bd71144e">
    <diagram id="BEIf03ZxJdbjnTByYSYp" name="Page-1">
        <mxGraphModel dx="3715" dy="2285" grid="1" gridSize="10" guides="1" tooltips="1" connect="1" arrows="1" fold="1" page="0" pageScale="1" pageWidth="1100" pageHeight="850" background="none" math="0" shadow="0">
            <root>
                <mxCell id="0"/>
                <mxCell id="1" parent="0"/>
                <mxCell id="42" value="" style="group;strokeColor=#dfc30c;" parent="1" vertex="1" connectable="0">
                    <mxGeometry x="-340" y="80" width="1220" height="680" as="geometry"/>
                </mxCell>
                <mxCell id="3" value="&lt;font style=&quot;font-size: 18px;&quot;&gt;Login/Resigtartion&lt;/font&gt;" style="shape=umlFrame;whiteSpace=wrap;html=1;width=170;height=70;boundedLbl=1;verticalAlign=middle;align=left;spacingLeft=5;" parent="42" vertex="1">
                    <mxGeometry width="1220" height="680" as="geometry"/>
                </mxCell>
                <mxCell id="127" style="edgeStyle=none;html=1;entryX=0.5;entryY=1;entryDx=0;entryDy=0;fontColor=#FF3333;" parent="42" source="4" target="126" edge="1">
                    <mxGeometry relative="1" as="geometry"/>
                </mxCell>
                <mxCell id="4" value="USER &lt;br&gt;REGISTRATION" style="html=1;" parent="42" vertex="1">
                    <mxGeometry x="789.5" y="330" width="110" height="50" as="geometry"/>
                </mxCell>
                <mxCell id="5" value="LOGIN" style="html=1;" parent="42" vertex="1">
                    <mxGeometry x="309.5" y="330" width="110" height="50" as="geometry"/>
                </mxCell>
                <mxCell id="6" value="ROLES" style="html=1;" parent="42" vertex="1">
                    <mxGeometry x="554.5" y="200" width="110" height="50" as="geometry"/>
                </mxCell>
                <mxCell id="7" value="FULL_NAME&amp;nbsp;" style="ellipse;whiteSpace=wrap;html=1;align=center;newEdgeStyle={&quot;edgeStyle&quot;:&quot;entityRelationEdgeStyle&quot;,&quot;startArrow&quot;:&quot;none&quot;,&quot;endArrow&quot;:&quot;none&quot;,&quot;segment&quot;:10,&quot;curved&quot;:1,&quot;sourcePerimeterSpacing&quot;:0,&quot;targetPerimeterSpacing&quot;:0};treeFolding=1;treeMoving=1;" parent="42" vertex="1">
                    <mxGeometry x="899.5" y="160" width="100" height="40" as="geometry"/>
                </mxCell>
                <mxCell id="15" style="edgeStyle=none;html=1;exitX=0.75;exitY=0;exitDx=0;exitDy=0;entryX=0.39;entryY=0.975;entryDx=0;entryDy=0;entryPerimeter=0;" parent="42" source="4" target="7" edge="1">
                    <mxGeometry relative="1" as="geometry"/>
                </mxCell>
                <mxCell id="8" value="EMAIL_ID" style="ellipse;whiteSpace=wrap;html=1;align=center;newEdgeStyle={&quot;edgeStyle&quot;:&quot;entityRelationEdgeStyle&quot;,&quot;startArrow&quot;:&quot;none&quot;,&quot;endArrow&quot;:&quot;none&quot;,&quot;segment&quot;:10,&quot;curved&quot;:1,&quot;sourcePerimeterSpacing&quot;:0,&quot;targetPerimeterSpacing&quot;:0};treeFolding=1;treeMoving=1;" parent="42" vertex="1">
                    <mxGeometry x="979.5" y="200" width="100" height="40" as="geometry"/>
                </mxCell>
                <mxCell id="16" style="edgeStyle=none;html=1;exitX=1;exitY=0;exitDx=0;exitDy=0;entryX=0;entryY=1;entryDx=0;entryDy=0;" parent="42" source="4" target="8" edge="1">
                    <mxGeometry relative="1" as="geometry"/>
                </mxCell>
                <mxCell id="9" value="PASSWORD" style="ellipse;whiteSpace=wrap;html=1;align=center;newEdgeStyle={&quot;edgeStyle&quot;:&quot;entityRelationEdgeStyle&quot;,&quot;startArrow&quot;:&quot;none&quot;,&quot;endArrow&quot;:&quot;none&quot;,&quot;segment&quot;:10,&quot;curved&quot;:1,&quot;sourcePerimeterSpacing&quot;:0,&quot;targetPerimeterSpacing&quot;:0};treeFolding=1;treeMoving=1;" parent="42" vertex="1">
                    <mxGeometry x="1009.5" y="260" width="100" height="40" as="geometry"/>
                </mxCell>
                <mxCell id="17" style="edgeStyle=none;html=1;exitX=1;exitY=0.25;exitDx=0;exitDy=0;entryX=0;entryY=0.5;entryDx=0;entryDy=0;" parent="42" source="4" target="9" edge="1">
                    <mxGeometry relative="1" as="geometry"/>
                </mxCell>
                <mxCell id="10" value="CONTACT_INFO" style="ellipse;whiteSpace=wrap;html=1;align=center;newEdgeStyle={&quot;edgeStyle&quot;:&quot;entityRelationEdgeStyle&quot;,&quot;startArrow&quot;:&quot;none&quot;,&quot;endArrow&quot;:&quot;none&quot;,&quot;segment&quot;:10,&quot;curved&quot;:1,&quot;sourcePerimeterSpacing&quot;:0,&quot;targetPerimeterSpacing&quot;:0};treeFolding=1;treeMoving=1;" parent="42" vertex="1">
                    <mxGeometry x="1009.5" y="320" width="100" height="40" as="geometry"/>
                </mxCell>
                <mxCell id="18" style="edgeStyle=none;html=1;exitX=1;exitY=0.5;exitDx=0;exitDy=0;entryX=0;entryY=0.5;entryDx=0;entryDy=0;" parent="42" source="4" target="10" edge="1">
                    <mxGeometry relative="1" as="geometry"/>
                </mxCell>
                <mxCell id="11" value="DOB" style="ellipse;whiteSpace=wrap;html=1;align=center;newEdgeStyle={&quot;edgeStyle&quot;:&quot;entityRelationEdgeStyle&quot;,&quot;startArrow&quot;:&quot;none&quot;,&quot;endArrow&quot;:&quot;none&quot;,&quot;segment&quot;:10,&quot;curved&quot;:1,&quot;sourcePerimeterSpacing&quot;:0,&quot;targetPerimeterSpacing&quot;:0};treeFolding=1;treeMoving=1;" parent="42" vertex="1">
                    <mxGeometry x="1009.5" y="380" width="100" height="40" as="geometry"/>
                </mxCell>
                <mxCell id="19" style="edgeStyle=none;html=1;exitX=1;exitY=0.75;exitDx=0;exitDy=0;entryX=0;entryY=0.5;entryDx=0;entryDy=0;" parent="42" source="4" target="11" edge="1">
                    <mxGeometry relative="1" as="geometry"/>
                </mxCell>
                <mxCell id="12" value="GENDER" style="ellipse;whiteSpace=wrap;html=1;align=center;newEdgeStyle={&quot;edgeStyle&quot;:&quot;entityRelationEdgeStyle&quot;,&quot;startArrow&quot;:&quot;none&quot;,&quot;endArrow&quot;:&quot;none&quot;,&quot;segment&quot;:10,&quot;curved&quot;:1,&quot;sourcePerimeterSpacing&quot;:0,&quot;targetPerimeterSpacing&quot;:0};treeFolding=1;treeMoving=1;" parent="42" vertex="1">
                    <mxGeometry x="1009.5" y="440" width="100" height="40" as="geometry"/>
                </mxCell>
                <mxCell id="20" style="edgeStyle=none;html=1;exitX=1;exitY=1;exitDx=0;exitDy=0;entryX=0;entryY=0.5;entryDx=0;entryDy=0;" parent="42" source="4" target="12" edge="1">
                    <mxGeometry relative="1" as="geometry"/>
                </mxCell>
                <mxCell id="13" value="ROLE" style="ellipse;whiteSpace=wrap;html=1;align=center;newEdgeStyle={&quot;edgeStyle&quot;:&quot;entityRelationEdgeStyle&quot;,&quot;startArrow&quot;:&quot;none&quot;,&quot;endArrow&quot;:&quot;none&quot;,&quot;segment&quot;:10,&quot;curved&quot;:1,&quot;sourcePerimeterSpacing&quot;:0,&quot;targetPerimeterSpacing&quot;:0};treeFolding=1;treeMoving=1;" parent="42" vertex="1">
                    <mxGeometry x="979.5" y="500" width="100" height="40" as="geometry"/>
                </mxCell>
                <mxCell id="21" style="edgeStyle=none;html=1;exitX=0.75;exitY=1;exitDx=0;exitDy=0;entryX=0;entryY=0;entryDx=0;entryDy=0;" parent="42" source="4" target="13" edge="1">
                    <mxGeometry relative="1" as="geometry"/>
                </mxCell>
                <mxCell id="14" value="REG_INFO" style="ellipse;whiteSpace=wrap;html=1;align=center;newEdgeStyle={&quot;edgeStyle&quot;:&quot;entityRelationEdgeStyle&quot;,&quot;startArrow&quot;:&quot;none&quot;,&quot;endArrow&quot;:&quot;none&quot;,&quot;segment&quot;:10,&quot;curved&quot;:1,&quot;sourcePerimeterSpacing&quot;:0,&quot;targetPerimeterSpacing&quot;:0};treeFolding=1;treeMoving=1;" parent="42" vertex="1">
                    <mxGeometry x="899.5" y="550" width="100" height="40" as="geometry"/>
                </mxCell>
                <mxCell id="22" style="edgeStyle=none;html=1;exitX=0.5;exitY=1;exitDx=0;exitDy=0;entryX=0.5;entryY=0;entryDx=0;entryDy=0;" parent="42" source="4" target="14" edge="1">
                    <mxGeometry relative="1" as="geometry"/>
                </mxCell>
                <mxCell id="23" value="LOGIN_ID" style="ellipse;whiteSpace=wrap;html=1;align=center;newEdgeStyle={&quot;edgeStyle&quot;:&quot;entityRelationEdgeStyle&quot;,&quot;startArrow&quot;:&quot;none&quot;,&quot;endArrow&quot;:&quot;none&quot;,&quot;segment&quot;:10,&quot;curved&quot;:1,&quot;sourcePerimeterSpacing&quot;:0,&quot;targetPerimeterSpacing&quot;:0};treeFolding=1;treeMoving=1;" parent="42" vertex="1">
                    <mxGeometry x="189.5" y="240" width="100" height="40" as="geometry"/>
                </mxCell>
                <mxCell id="26" style="edgeStyle=none;html=1;exitX=0;exitY=0;exitDx=0;exitDy=0;entryX=0.5;entryY=1;entryDx=0;entryDy=0;" parent="42" source="5" target="23" edge="1">
                    <mxGeometry relative="1" as="geometry"/>
                </mxCell>
                <mxCell id="24" value="PASSWORD" style="ellipse;whiteSpace=wrap;html=1;align=center;newEdgeStyle={&quot;edgeStyle&quot;:&quot;entityRelationEdgeStyle&quot;,&quot;startArrow&quot;:&quot;none&quot;,&quot;endArrow&quot;:&quot;none&quot;,&quot;segment&quot;:10,&quot;curved&quot;:1,&quot;sourcePerimeterSpacing&quot;:0,&quot;targetPerimeterSpacing&quot;:0};treeFolding=1;treeMoving=1;" parent="42" vertex="1">
                    <mxGeometry x="119.5" y="335" width="100" height="40" as="geometry"/>
                </mxCell>
                <mxCell id="27" style="edgeStyle=none;html=1;exitX=0;exitY=0.5;exitDx=0;exitDy=0;" parent="42" source="5" target="24" edge="1">
                    <mxGeometry relative="1" as="geometry"/>
                </mxCell>
                <mxCell id="25" value="LOGIN_INFO" style="ellipse;whiteSpace=wrap;html=1;align=center;newEdgeStyle={&quot;edgeStyle&quot;:&quot;entityRelationEdgeStyle&quot;,&quot;startArrow&quot;:&quot;none&quot;,&quot;endArrow&quot;:&quot;none&quot;,&quot;segment&quot;:10,&quot;curved&quot;:1,&quot;sourcePerimeterSpacing&quot;:0,&quot;targetPerimeterSpacing&quot;:0};treeFolding=1;treeMoving=1;" parent="42" vertex="1">
                    <mxGeometry x="189.5" y="430" width="100" height="40" as="geometry"/>
                </mxCell>
                <mxCell id="28" style="edgeStyle=none;html=1;exitX=0;exitY=1;exitDx=0;exitDy=0;entryX=0.5;entryY=0;entryDx=0;entryDy=0;" parent="42" source="5" target="25" edge="1">
                    <mxGeometry relative="1" as="geometry"/>
                </mxCell>
                <mxCell id="30" value="USER_ID" style="ellipse;whiteSpace=wrap;html=1;align=center;newEdgeStyle={&quot;edgeStyle&quot;:&quot;entityRelationEdgeStyle&quot;,&quot;startArrow&quot;:&quot;none&quot;,&quot;endArrow&quot;:&quot;none&quot;,&quot;segment&quot;:10,&quot;curved&quot;:1,&quot;sourcePerimeterSpacing&quot;:0,&quot;targetPerimeterSpacing&quot;:0};treeFolding=1;treeMoving=1;" parent="42" vertex="1">
                    <mxGeometry x="419.5" y="120" width="100" height="40" as="geometry"/>
                </mxCell>
                <mxCell id="34" style="edgeStyle=none;html=1;exitX=0;exitY=0;exitDx=0;exitDy=0;entryX=0.63;entryY=0.975;entryDx=0;entryDy=0;entryPerimeter=0;" parent="42" source="6" target="30" edge="1">
                    <mxGeometry relative="1" as="geometry"/>
                </mxCell>
                <mxCell id="32" value="PERMISSION" style="ellipse;whiteSpace=wrap;html=1;align=center;newEdgeStyle={&quot;edgeStyle&quot;:&quot;entityRelationEdgeStyle&quot;,&quot;startArrow&quot;:&quot;none&quot;,&quot;endArrow&quot;:&quot;none&quot;,&quot;segment&quot;:10,&quot;curved&quot;:1,&quot;sourcePerimeterSpacing&quot;:0,&quot;targetPerimeterSpacing&quot;:0};treeFolding=1;treeMoving=1;" parent="42" vertex="1">
                    <mxGeometry x="559.5" y="50" width="100" height="40" as="geometry"/>
                </mxCell>
                <mxCell id="35" style="edgeStyle=none;html=1;exitX=0.5;exitY=0;exitDx=0;exitDy=0;entryX=0.5;entryY=1;entryDx=0;entryDy=0;" parent="42" source="6" target="32" edge="1">
                    <mxGeometry relative="1" as="geometry"/>
                </mxCell>
                <mxCell id="33" value="STATUS" style="ellipse;whiteSpace=wrap;html=1;align=center;newEdgeStyle={&quot;edgeStyle&quot;:&quot;entityRelationEdgeStyle&quot;,&quot;startArrow&quot;:&quot;none&quot;,&quot;endArrow&quot;:&quot;none&quot;,&quot;segment&quot;:10,&quot;curved&quot;:1,&quot;sourcePerimeterSpacing&quot;:0,&quot;targetPerimeterSpacing&quot;:0};treeFolding=1;treeMoving=1;" parent="42" vertex="1">
                    <mxGeometry x="679.5" y="120" width="100" height="40" as="geometry"/>
                </mxCell>
                <mxCell id="36" style="edgeStyle=none;html=1;exitX=1;exitY=0;exitDx=0;exitDy=0;entryX=0.5;entryY=1;entryDx=0;entryDy=0;" parent="42" source="6" target="33" edge="1">
                    <mxGeometry relative="1" as="geometry"/>
                </mxCell>
                <mxCell id="38" style="edgeStyle=none;html=1;" parent="42" source="37" target="6" edge="1">
                    <mxGeometry relative="1" as="geometry"/>
                </mxCell>
                <mxCell id="39" style="edgeStyle=none;html=1;entryX=0;entryY=0.5;entryDx=0;entryDy=0;" parent="42" source="37" target="4" edge="1">
                    <mxGeometry relative="1" as="geometry"/>
                </mxCell>
                <mxCell id="40" style="edgeStyle=none;html=1;entryX=1;entryY=0.5;entryDx=0;entryDy=0;" parent="42" source="37" target="5" edge="1">
                    <mxGeometry relative="1" as="geometry"/>
                </mxCell>
                <mxCell id="37" value="HAS" style="rhombus;" parent="42" vertex="1">
                    <mxGeometry x="566.5" y="315" width="87" height="80" as="geometry"/>
                </mxCell>
                <mxCell id="126" value="USER_ID" style="ellipse;whiteSpace=wrap;html=1;align=center;newEdgeStyle={&quot;edgeStyle&quot;:&quot;entityRelationEdgeStyle&quot;,&quot;startArrow&quot;:&quot;none&quot;,&quot;endArrow&quot;:&quot;none&quot;,&quot;segment&quot;:10,&quot;curved&quot;:1,&quot;sourcePerimeterSpacing&quot;:0,&quot;targetPerimeterSpacing&quot;:0};treeFolding=1;treeMoving=1;" parent="42" vertex="1">
                    <mxGeometry x="794.5" y="160" width="100" height="40" as="geometry"/>
                </mxCell>
                <mxCell id="50" value="&lt;font style=&quot;font-size: 18px;&quot;&gt;Login/Resigtartion&lt;/font&gt;" style="shape=umlFrame;whiteSpace=wrap;html=1;width=170;height=70;boundedLbl=1;verticalAlign=middle;align=left;spacingLeft=5;container=0;" parent="1" vertex="1">
                    <mxGeometry x="1170" y="80" width="1220" height="680" as="geometry"/>
                </mxCell>
                <mxCell id="137" style="edgeStyle=none;html=1;entryX=1;entryY=0.5;entryDx=0;entryDy=0;fontColor=default;exitX=0;exitY=0.579;exitDx=0;exitDy=0;exitPerimeter=0;" parent="1" source="88" target="132" edge="1">
                    <mxGeometry relative="1" as="geometry">
                        <Array as="points">
                            <mxPoint x="1780" y="430"/>
                            <mxPoint x="1780" y="560"/>
                        </Array>
                    </mxGeometry>
                </mxCell>
                <mxCell id="88" value="&lt;div style=&quot;text-align: center; box-sizing: border-box; width: 100%; background: rgb(228, 228, 228); padding: 2px;&quot;&gt;&lt;b style=&quot;&quot;&gt;&lt;font color=&quot;#ff3333&quot;&gt;User_Registration&lt;/font&gt;&lt;/b&gt;&lt;/div&gt;&lt;table style=&quot;width:100%;font-size:1em;&quot; cellpadding=&quot;2&quot; cellspacing=&quot;0&quot;&gt;&lt;tbody&gt;&lt;tr&gt;&lt;td&gt;&lt;font color=&quot;#ffff33&quot;&gt;PK&lt;/font&gt; : USER_ID : INTERGER&lt;br&gt;+ FULL_NAME : VARCHAR&lt;/td&gt;&lt;td&gt;&lt;br&gt;&lt;/td&gt;&lt;/tr&gt;&lt;tr&gt;&lt;td&gt;+ EMAIL_ID : VARCHAR&lt;br&gt;+&amp;nbsp; PASSWORD : VARCHAR&lt;br&gt;+ CONTACT_INFO : INTERGER&lt;br&gt;+ DOB : DATE_TIME&lt;br&gt;+ GENDER : VARCHAR&lt;br&gt;+ ROLE : VARCHAR&lt;br&gt;+ CREATED_AT : DATE_TIME&lt;br&gt;+ COUNTRY_STATE : VARCHAR&lt;/td&gt;&lt;td&gt;&lt;br&gt;&lt;/td&gt;&lt;/tr&gt;&lt;tr&gt;&lt;td&gt;&lt;/td&gt;&lt;td&gt;&lt;br&gt;&lt;/td&gt;&lt;/tr&gt;&lt;/tbody&gt;&lt;/table&gt;" style="verticalAlign=top;align=left;overflow=fill;html=1;" parent="1" vertex="1">
                    <mxGeometry x="1920" y="320" width="230" height="190" as="geometry"/>
                </mxCell>
                <mxCell id="130" value="&lt;div style=&quot;text-align: center; box-sizing: border-box; width: 100%; background: rgb(228, 228, 228); padding: 2px;&quot;&gt;&lt;font color=&quot;#ff3333&quot;&gt;&lt;b&gt;LOGIN&lt;/b&gt;&lt;/font&gt;&lt;/div&gt;&lt;table style=&quot;width:100%;font-size:1em;&quot; cellpadding=&quot;2&quot; cellspacing=&quot;0&quot;&gt;&lt;tbody&gt;&lt;tr&gt;&lt;td&gt;&lt;font color=&quot;#ffff33&quot;&gt;PK&lt;/font&gt; : USER_ID : INTERGER&lt;br&gt;+ LOGIN_ID : INTEGER&lt;/td&gt;&lt;td&gt;&lt;br&gt;&lt;/td&gt;&lt;/tr&gt;&lt;tr&gt;&lt;td&gt;+ PASSWORD : VARCHAR&lt;br&gt;+ LOGIN_AT : DATE_TIME&lt;br&gt;&lt;/td&gt;&lt;td&gt;&lt;br&gt;&lt;/td&gt;&lt;/tr&gt;&lt;tr&gt;&lt;td&gt;&lt;/td&gt;&lt;td&gt;&lt;br&gt;&lt;/td&gt;&lt;/tr&gt;&lt;/tbody&gt;&lt;/table&gt;" style="verticalAlign=top;align=left;overflow=fill;html=1;" parent="1" vertex="1">
                    <mxGeometry x="1480" y="270" width="160" height="90" as="geometry"/>
                </mxCell>
                <mxCell id="132" value="&lt;div style=&quot;text-align: center; box-sizing: border-box; width: 100%; background: rgb(228, 228, 228); padding: 2px;&quot;&gt;&lt;font color=&quot;#ff3333&quot;&gt;&lt;b&gt;ROLE&lt;/b&gt;&lt;/font&gt;&lt;/div&gt;&lt;table style=&quot;width:100%;font-size:1em;&quot; cellpadding=&quot;2&quot; cellspacing=&quot;0&quot;&gt;&lt;tbody&gt;&lt;tr&gt;&lt;td&gt;&lt;font color=&quot;#ffff33&quot;&gt;PK&lt;/font&gt; : USER_ID : INTERGER&lt;br&gt;&lt;/td&gt;&lt;td&gt;&lt;br&gt;&lt;/td&gt;&lt;/tr&gt;&lt;tr&gt;&lt;td&gt;+ PERMISSION : VARCHAR&lt;br&gt;+ STATUS : VARCHAR&lt;br&gt;&lt;/td&gt;&lt;td&gt;&lt;br&gt;&lt;/td&gt;&lt;/tr&gt;&lt;tr&gt;&lt;td&gt;&lt;/td&gt;&lt;td&gt;&lt;br&gt;&lt;/td&gt;&lt;/tr&gt;&lt;/tbody&gt;&lt;/table&gt;" style="verticalAlign=top;align=left;overflow=fill;html=1;" parent="1" vertex="1">
                    <mxGeometry x="1480" y="520" width="160" height="80" as="geometry"/>
                </mxCell>
                <mxCell id="134" value="" style="endArrow=none;html=1;edgeStyle=orthogonalEdgeStyle;fontColor=default;exitX=1;exitY=0.5;exitDx=0;exitDy=0;entryX=0;entryY=0.5;entryDx=0;entryDy=0;" parent="1" source="130" target="88" edge="1">
                    <mxGeometry relative="1" as="geometry">
                        <mxPoint x="1690" y="460" as="sourcePoint"/>
                        <mxPoint x="1850" y="460" as="targetPoint"/>
                    </mxGeometry>
                </mxCell>
                <mxCell id="135" value="1" style="edgeLabel;resizable=0;html=1;align=left;verticalAlign=bottom;labelBackgroundColor=none;fontColor=default;" parent="134" connectable="0" vertex="1">
                    <mxGeometry x="-1" relative="1" as="geometry">
                        <mxPoint x="20" as="offset"/>
                    </mxGeometry>
                </mxCell>
                <mxCell id="136" value="0" style="edgeLabel;resizable=0;html=1;align=right;verticalAlign=bottom;labelBackgroundColor=none;fontColor=default;" parent="134" connectable="0" vertex="1">
                    <mxGeometry x="1" relative="1" as="geometry">
                        <mxPoint x="-20" as="offset"/>
                    </mxGeometry>
                </mxCell>
                <mxCell id="138" value="0" style="edgeLabel;resizable=0;html=1;align=right;verticalAlign=bottom;labelBackgroundColor=none;fontColor=default;" parent="134" connectable="0" vertex="1">
                    <mxGeometry x="1" relative="1" as="geometry">
                        <mxPoint x="-20" y="35" as="offset"/>
                    </mxGeometry>
                </mxCell>
                <mxCell id="139" value="0" style="edgeLabel;resizable=0;html=1;align=right;verticalAlign=bottom;labelBackgroundColor=none;fontColor=default;" parent="134" connectable="0" vertex="1">
                    <mxGeometry x="1" relative="1" as="geometry">
                        <mxPoint x="-260" y="165" as="offset"/>
                    </mxGeometry>
                </mxCell>
                <mxCell id="185" value="" style="shape=image;verticalLabelPosition=bottom;labelBackgroundColor=default;verticalAlign=top;aspect=fixed;imageAspect=0;image=data:image/png,iVBORw0KGgoAAAANSUhEUgAAAxMAAAKjCAMAAABROaKjAAAABGdBTUEAALGPC/xhBQAAAAFzUkdCAK7OHOkAAAMAUExURf///6nF635+fj4+PgAAAJfRdvnPzf/lmX6n4f/Pn7+/v1paWmRkZEBAQF58qcHBwSIiIr+rch8qOZ6enuDg4B8fH+Pj4wICAt3d3QkJCA8ODV9fX5ubm+/v7z03JR4oOBEVGjk5OkI5KI+Pj4GBgXCdWCQ0GxYUEeeHMH5yTBoaGk6Hka6vrcfPn3JsRkKB4aGhof/Pkfr6+ueXLi0lIGVYQX6nryoyPoehnx8aFqfPl05ojVBDMk6Xi8flmXV1dUtkiTEwK/7MnuS4jn6Xk1KX4iZsy//PfP+7aMZzMUZGRvLDln+ly/+hVNXV1efPn/+zUUJSbMrLy32Bdk5CaM/PzwBsfAAAScdsAGKn4UsAAHKn4WROPtOrg8f//+Tn5UdiOIizmadAVBwlMX5mYD0zMsGcdxMZIU6n56e7n4hAZvnJnFl0oC0qJ//li///5wFZrv/ldv/PZHqOrZ+AYkAzlG1tbf//x4cAAGJYAqdCL1Nufef//4fH/09RU5eDgJ241y2HaWODrottWLy7uuenTnliSy8+VP/Hh6dJAKdGUAB4dsiHCunBv5fRYf/np6dAAK6MaxspN+jlmSZZsAsRGMd4ADBCXFJsk05OTvX19ZejPnJpYU8ydqfn/8mnpcfYgk+LwFRidJeWl8XFxc+KRU5ASSYyk7ubm4dGZE54cvK7i+K0e05Op1IyAFdMTKdOh0sBQrWXcaSkpObOfSYAAOrhiACHxwAAdv39/aC4gFhJM0IAdtm1s5J2WgBAZicbF2xaWYSJhocAUAgAhInRdnrRbquOjXUwI04yRuzlsFmwc1FheTIyMQAAVAAAMIcAh4cAVABOplZaX3RsPejp6AAyk2ydngAALodOpwBLQcmjfJ+ns3xvA1xOTDqBzc/mw4xzcgBtWU4AVABGZGmmzIiMLSxYdo+8TvmhboxEK4cAL6dOTomfv+fPkWIAfXKnr5mBSHY9f1GOd6nFzU5AAOeXXYXC3k5sVMihgcOwT0IyAJbLrafHp//Hp6fn58F0rHIAACAASURBVHgB7Z0LnBTFve/b2b/szsLqJrtjM7Ouuuye7Los7+dyeIQBeT+FBUTQIA9FXATEBUHRiCCIqFwNOZDjC19ofCSoiSuKr3i8JoLRE71GP5qjMbkxUW9OTM7Jzfmc3Puv6ndPz0zXTPdMz8y/0e3q6upH/au+8/tXdXW1JNFCFiALkAXIAmQBsgBZgCxAFvDFAr0r87ece9CXLNFJyQJZWODJZsjr0ouoyKL06FAfLNABkW/9Qx6XM+RxPuSKTkkWyNwC4+AfTs7j8urJ0ebMb56OJAv4YIFtch6JYJf+FpDz5EO50ikzt8C0WN6ZuDDzu6cjyQLeW4CY8N6mdEZRC3S0NeFSpS1duDGwUvQknqUnJjwzJZ0oAwuc2thVFdE7PmMrV65sB5CViFhVXVNlfQYnzfIQYiJLA9LhGVugtnFbDAGIrfxoxWuH9/awLIcPf/wSwwOgqqkj4ytkduC0ZmpPZGY5OiorC1TWMXl48OPDFhTsG3df+xFiE9s2MJdyQTqRVcnSwRlZoL4Rgeh8KTUPGh93f/wgYtFVm9GVMjmImMjEanRMNhboqItBZIXNWdIIcF5fu1KGqrZsLipwLDEhYCxK6oEFOqoAVr7mXPVTxN6NTlQkN1RQe8KDYqZTuLZAfRfAS8+nqPvJd+39uB2qcuFBkU64Lk5KmL0FBsbklZkRwVjZuwKgyf/WNjGRfUHTGVxaoL4K2sW9JrNyPL8SIr53zRITLsuTkmVtgfrjINayNtOghV+LxWqyvpPUJ6D2RGr70F7PLNARg2u1mp3F+u4Y+AwF6YRnZU4nSmmBjlgsud+kdMya/yanZm+nz1AQEykLknZ6ZYH6WOxux3qugJC4i8c77kQofB0gSEx4Veh0npQW6JKTq0QiEKljno9FUl4ry53UnsjSgHS4KwvUwsqEeu4oAgmpMCIh4cfQ6OqqmSUincjMbnSUmAWq4Hmn2p5p3NCYj48piAmxsqXUGVmgFl7KtPo7HveaH0LRobZSAsNEpe+PYjIqTDrIEwtUWrphE3yhHosAFl7X47PrdAD+fp8eVAOWg/ZClyf3ZT1JpIxTkaY9ccsP/wXfr/jwr9/mb1l879snH2PbJ5/820/4SvvzvW/f8uCr2sbJJ98yzrJp7HAIfQvY+9iVZb62mqxZp62cWyAEzp1Oan3/bF2PHt+/s2OqwcT3/8nOhHW7vcyHPNQAMCrS6cRvx2AVf/BVvTI/wZm45Yff+pkehQGExbzYNs27EsKMicoy8LnL2QcD0ikFLHAArFXatvX9+bMw5jN45n4UjHc7WqrefBzutaWxblb5MgVSK772WlaZjonf3fgq1nis5I8D4Oq38P6rWK15zC2v/wU+fXXJVbDwX7hO/BZTnPwhwPu3LIafvf7q9zD06veOs8hUy7egrQHvpFXAwJS04CxQ1m6t0vat7y+GhX/uMfW6v9/Q4+9brmu5t0cSndAdqJfYa6neL+xNcLk6zVw2txz9Gf73vW//7q8chVs+4jrxP3928pJ/ueWHPzv5w68e/9nJv0VYbnnwdz/EmH+ZeDJPfsuDbC/ueP9VRlWK5Vs8Y+pb6d5nsqDP2LPg6n6yG+4CtTbrlVqhwrS55q1z0Xf6DBsWf26ZoTFh2m/FaGWrH5Mcs3liG9LqBErC725kvhEKAJOLJYyJ3z0dBfjqlieYhGDE7/7KmeBNDFSH9xAhZGIa7v0EjzB7Xg5scJ0AaPYjiwV+zgPFw0QNpHzPFIWhx99/8Oepf0Z52Lvlugd0JqwgmLbgQDL8sojH9kSDi/YEVunf/owxgc2KH/7Dt295nTHxITYmfnfjLYtRJ372l680nbjx1VuO/sNfVZ2Y9jtFJ1wwcVp3ZQO1JxyKslfxMFEJH5sqNAtaFQCbETCjx6KFqzfDm2d/wXRiMTa7tcWalsU+DyEHg2UbFWFEYBs77bwdHy78FyYWTys68ThuqZ1RP6v6S/STW7A9gc0G1u/E2hPYlHjvWz/7Hnz7QbU94YIJ3u/UQP1OCSVaRExIscTH2FqNz2S9Anx4DdWD5xPcKbpF6YhycIpcRil9sdgbS88n7FAUExMhywOKTDAwH/M8+NEVq9k/Xb9TipqtNBR4AyNFqnS7NCa0G6K1boFiYkKKRBM9IHM1FwqvBD9/QbNgIl1td7efmNAZsAeKiok2+Eio2icmNpi61pen2Lr507cn3FXtjFMRE3pZ2ANFxYRUB0+o9dyo3IkV303MtTDexxGA6Z9jZ1zX3R5ITNhR0LeLiwkTFEbFF8djbw+/kUg7tsNt1c44HTGhM2APFBkTCMVQRwYcI3Vu7Htf8lklSCfs9TBI28XGhBSCVuNlO3td1yHQA04p7l7pOxIunk9krADuDiSdSIph0TEhtUVg/PN6nRcP7MVhTn48rLMWAfU7We0RpK3iY0KqD0GSOZ4UUXCSBoaOEn9tFMpyMDkmMREkCqz3UoRMSFJtGUTTTxjrwMbej5tzNIkyMWGth0HaKkomJKkN35ZZKTr72d1PAERCvnbB6kVPzyd0UwQuUKRMSBL7AEWzyy+yMM/p+Y+HAhzwYYSTc5GTTjjbJQixRcuEJPEPFUWrPn6eVfmUy95rn8C3GnL5mSJ6PhGEyp/kHoqYCcxxR+MBHCDeXrXiNaN/1krH3Yf/+SUUCDjexYdwJ7GS99GkE97b1KszFjcTzEqVXeOxzssQXfnSin9e8c+vHT58GP//5xW4cZy984ZtiLq23DQiTIVG7QmTMQIWLH4mmMFrK5u6yoxPZGtvIePHsUNtudUHrfhJJzRLBG9dGkxodq/lbwojB7j4ORJcu17yNTGR3Db53lNaTOTb2sb1iQnDFkELERP5KRFqT+TH7m6uSky4sZL3aXrKr7obq+dXqm/AYO9zVRxnJCbyU45N8C2/arur8/5DrDo/GS+AqxIT+Smkd2Igf6Mzi3+RLI7t/EZrVPb5g335MasnVyUmPDGj+ElmbWvlD0fy8yd2/EnxWy6VI4iJwizpWsjBgPbCNE3Wd01MZG3CvJyAmPDP7MSEf7b188zEhH/WJSb8s62fZyYm/LMuMeGfbf08MzHhn3WJCf9s6+eZiQn/rEtM+GdbP89MTPhnXWLCP9v6eWZiwj/rEhP+2dbPMxMT/lmXmPDPtn6emZjwz7rEhH+29fPMxIR/1iUm/LOtn2cmJvyzLjHhn239PDMx4Z91iQn/bOvnmYkJ/6xLTPhnWz/PTEz4Z11iwj/b+nlmYsI/6xIT/tnWtzO31UqMidqczW7rW04CeWJiIpDFkvqmaqHuVLi/jl4rSm2mTPcSE5laLp/H9eRvrNbl8xaK+NrERCEWbi1ngt4+9afsiAl/7OrzWXvinNAkEz4ZmZjwybD+npYJBcmETzYmJnwyrM+n7QkkE36ZmJjwy7L+nvdcoAma/LIwMeGXZX09b2MMoOc7vl6idE9OTBRg2d8/Hpp39oFYYwHeewHcMjFRAIVkucXu+l4g75weju9rh877LbtowxMLEBOemDF3J+m+LwZnLI3Hw+H49J0y1JED5bntiQnPTerrCTuOQ/M+BEJZlvaRY/d1+3rBEjw5MVFIhV7fS0a3iYmEtqADdTy/X+YrJPu5u1diwp2dgpCqu6YZ+iw1gGD+UxgdKLlXzj9lHARz+HYPxIRvpvX6xB0NZrdJE4pweEIfaK4hB8o7cxMT3tnS1zMdHBdlbpOBghZCTwodqIZZvl69pE5OTBRGcT8ZgT4THIhQyFizMyp3kQPlUVESEx4Z0tfT9J4mt+8zN601kdDW8QmjoZVGe3hTCMSEN3b08yzcbVqjVX/ndTx+hBwojwqBmPDIkP6dpi0Coyc4k2COja85OyqPO+jffZTMmYmJgBd17TR48Ugqt0nnIk4OlDdlSUx4Y0efzjI4FI1uT+M2KVCw9nc8vupFuYp6oLIsDGIiSwNmc/jlu6+RJP4nyVmerIajyXubdIUwUbFmezRKDlQSc7qMJiZcGsqXZJf/4AJpB3LhvMyqkl9clbT/1YkI9mB7wlG5lSZ+craou1hiwp2dfEp167233itt2gw/ueDy3TJcYr7KwVAUlmAdd71oSdGBgmm96cG22ZhCYWJCyFyeJ97xkwukm6+Rbn3sp/daz429TUM/0Kq5Cy5YUi05OlByiHqgrAZ1v0VMuLeVHylRJi7fjZNw/OSCm8GkE9jb1LxRq+IuiGBJzFRMOAoRcqAyLDBiIkPDeXQYMsF0gi+bfn6BEsDeJsA36YQWMxHswFVD5Wk0201GpURMZGQ2zw5iTGB7At7+6WJdJ27AsU1LdUfIRMag20byrcmXzlZjB13UT99vo2LNsVi0abBnN1pCJyImglbYpx2AF/fpFd0ciM/8RIHBYMLYbSEizoliDtQNQcteAdwPMRGsQhr8svaQjlVy2zJ19dTV8UG3wSeXfnnRh7CgBV748qJ+LaMBuHxYqFCO/GAoHDgtWBksgLshJgQL6cIyL5eqsqoq8/kaovAiPqRTfudtRMSnzJ89ZWu4pW945gtf3jZy0G19B21ZjUwsCM9cYG1h8wMVRIYBnC6Yw5JPTkwIVoHe0NUU8upfiC/G2UKhbXxWDlapE3WiBfunTvRbNDI8GXWiHwIRn/osMjEyPGWrphGWg/DF1GFA71UIFrAkEROCJusN/jojB8fJ8jCcvckmErg5+S1sT7f0RZ2YMl9jgunEyDiqBz/AchBqzcZmaOigh3eCJUxMiBrMbyYkqXeV3LwxEQnuITEwboP3dSZS6cTSTnpPW7R0eXrSCUGz+c+EJLVV47RmDlRgFG9rxHHsOP4fD/9dTYQCwTTCpBPx6cNkcpsEy1ZNTkwI2i0XTEiDm6LMgXJeLA1w04aZivjGGLpNglmj5IoFiAnBmpATJiTptJ5yu5MDpWmBogxmYTDrBPbBtg4UzBgl1yxATGiWcLnOEROSVNkpMwfKVO1V2eDuE9/BwdATsADfmL6E3CaXpemYjJhwNEvyyJwxIUmNMXlJcgfK5ljpRMSPodtE79olL8G0e4iJtCayJsghE1J9HcSO2eo+0wKuBopcJLQnmNtEk9pYy0xwi5gQNFgumZCkWQ34FkUCFToXpj2ck/CEJRDtojcnBMvUlpyYsBkk3WZumZCkgc2wxDqTjSYNmlBoYOD2sZhcRm5TuiJMt5+YSGch2/5cMyHVd8mxY4oKsNqvhjQwNCBYPL4yQW6Trbgy2SQmBK2WcyYkCScUH7pKr/xae0JxoAw20G2iKc8EC9M5OTHhbJeksXlgQuo+vVk+qjpQik4ofpPBSRjfIAKa2SlpqQntICaEzIWjkXweA+h8O/iBopg295khDQYZq6i3ydlwmcRqTLCpVODtqzf98mrjLMlnHjLSlFwoP0x0S+eOx8merO0JvZGBL9SR2+RdTdSZwNm3pB0/tpyYmLCYQ9nIDxN4bfbBU+5AGerAmxZxnLkGqno73CpFZWYBCxObfv5vv6xnc29t+tNuFI0d19y6WIZrdv1Y0meUyOwixXRU3piQpHfqwJg8ViODzXCG09bQWxLeVTILE5f/4N9+yefe2vTWXTjDyo5r9l4t7foxAoFY0KJYII9MSNL9ncBmy2T/lCWObhPND+tx3bQwwXTiajb3FmtW7LpkxzVsOq4fSzv+8/O7PL5s4Z4ur0xIgxtj6scoOBnkNvlRkSxM7Pgxb2MjGq8oOvHAXagT0q3bHjO1vP24iwI6Z36ZkKQLe0J05xpFJY5wt6mAjFcYt6ozwfqdsOHwSz731qY/fcj04ZodAHt+efXluy2T+xZGxvy6y3wzIUmnVrOvtITZF1iiNCusD+WsMWE9taVLVrqcXCfDPPlnQpJeBhi9dDvg7OHGfVHIMwu4YGLTZmphG/YOAhNS7Tac1oYmSTZKxdOQMxOeXqK4ThYIJlAqaDJ93+oVMSFo2oAwcSoI3jcld22BZExsus58ir9TX6xmjoAwUUlMaCXi+ToZE7ssXU3YJ0uLYgFiouhrgs4Edrtewh7RXXP553+Bn/zbZhzTwTpndx3A+F34GZ2it4TLDBITLg1VuMk0Jm79Pxds+vnf+Mgm/EDtzdfsuoSNcdpxya63r771satJJ/QSDhITN2OHIA1F04vGq4DOxK9w5CUOhL388/+HI2R3IBO34odz4MfoQ+HDCmJCt3eQmHjgL9cQE3rJeBbQmXjs6ss//x7XCZUJ5QeImLCZOkBMdD/w/36O6n4BfvvrBDX4bOWUxabGhGS0JxQmWCuCNSW4TtxMNtdsHCAmpAfumsxGLd98CX5LmEakaSWU9VpnQj+T00h8pzj9gNIKBIKJ2hreF/vv/6v75v/8+QXo2SqiXlol4VtuE5nw7VLFceJAMCGVNYNU2xNmdG/ajF/WJp3wtG4RE4LmDAYTlQDNAC9iK2LXT6g9IViE6ZITE+ksZNsfDCakTmzsQaXt3mjTEwsQE4JmDAgTjYhEg+CtU3J3FiAm3NlJTxUQJtB5IpnQC8XbADEhaM/gMNEpeOeU3KUFiAmXhtKSBYSJ2q5oo3ZLtPbWAsSEoD2DwUR9F9DX4AVLznVyYsK1qZSEgWBiYCssWbVEpu84Chaeu+TEhDs76akCwASbe599vAg/00VfYNELxrsAMSFoy7wzYfpGC/sukWdf6hpYV+XhUlfArR1iorCY6K6xfMsLP8Ti0aeJ6thDQC+XKkHDBic5MSFYFvnVCdsnixQHyosv/3bAknIvly+PFu7jE2KigJjAL7NEt2vTJyvTY+IXvJgDVS+Yi4TkIfial0iUl38NahIuUiARxIRgQeVPJ8xf8NKA4GvmQA0UzIY9uQ9MhOzXKJRtYkKwpPLGxLnHcZ59CwvGBn66q6FDMCPW5MSEYQ9iwrCFq1CemKhXv8di95xULuLbs3SgiAmj9IkJwxauQnlhgn23a7T1y/GGSCgh/DhLa03m70MSE0bpExOGLVyF8sHE/eOh/Ug8iUTocOBHvDJ3oIgJo/SJCcMWrkK5Z4J9xk77CosOgD3AgGFfLcq0B4qYMEqfmDBs4SqUaya68WtdfdBtSqcSPAF+pqX59IwcKGLCKH1iwrCFq1COmTi1U27flx4ITTbYV1AzcqCICaP0iQnDFq5COWXitJ4gp3WbNB74Gr+WLUMv2yM8nMdAwvlOU+WPmDCsQ0wYtnAVyiETg5ui0Gepe5FQoMDv3MnN91nysusATixLTFhskmKDmEhhHKdduWOishra96VtRlhUQt040g7HzY/wdl2CQNx8Tao5NEknjMImJgxbuArliokLt7HepoyQwG+ing1mB4pPEn/zNanmRiMmjNInJgxbuArlhonBLyu9TU4q4CYuPqEPxO7TeqBw0t9dP775mlRzaBITRukTE4YtXIVywsSpneg2CTYkDFRQJ/DfPnSgzlWyhExIN4OzTqjNcWLCKH1iwrCFq1AOmHgHe5seBxneXG3U8/DMvsrGf/RjFd6yTL50tmVb3VizM4oOFNMKxsSmzc7tiZq6WpZvRyY2/HBUefmQMRkNIv8a0LhYVxWqCBL5zgR/SPfoRf3C4ZkLEqp6fNBFyIRtsTOh6AQmsjhQyWwfAUaFMxOj599OTCQzHMVrFvCbifu528SrPjLRAtA3PHkz/HXrzL6DbsONFnjhKfwES7/Jv1+8YCbAgjDGfsJ0AnUE2VjEonh8y+g3V1scKC0D9nUNKlJdrTMTj6BIDBmzdje8N2rOnvL9J8bi3/L1D99ePnXUHADcBNhTPmc0LEuUEtIJu6GLd9tfJrpvAGifHo6z+o81f8r82eFFIxeNDLcsmNl3ylYc4YGw4OaU+U+91W/yW/3CLX1b+oZnvqAx8RSjQ49HpYhPPwOgZyjlEgOIwnGn9+w2PLJ2y6ghYxCM9a/c88rYLaNH7cfarzAxFd2q9a+MRWQYJ4kLMVG8DNhz5i8TUjfXCVb1EQb2iw/wFbpLU1An4igCfXEHx+WeS2dPYR8cXICpuO+k6ATqygIlvmUk87D2NUP18TTTcSATMnQ6M1G+Yf4DY/bjdd4btf/Zh29ehhCoTGxYLJ+4Z7GMQjHHscFBTNhrTvFu+8yEJA1uxKfXrD0xaMtqphPhOFZ7phNYxSe/dQ/XiXAcOWB6EEalQNVgOrFAWQ/a8qwSPzJs7ZBNViRsNuaeyXwnbGID0wlc5vTZM+evj2AA1QHlAwNDvmKIlBMTyUxbKvG+MyFJ2O8U7dMvHp/y6374uw8j1fYE+/3HRsWJezYDNiounR1nKsJaGe/Pnx1njY7352NTQ2lPYMNjpNHvlLJsGpCIZG1sRGDtbtaewLbDhsVjNizmDYf98B56UWp7AsYQEyntWwI7c8CEJJ06lD2f0BamE2pPLHYpqe8WGa8YYQzvitLW6mGm5xOpiqUyRV8sikDGC/lOqaxeXPtywoSkPMdWqnoYBeIEc5O0BaMt/bHahrZm6Sb0wYGA2nNsFyXg2O+UMRB4IDHhwupFkiQ3TEiSMt5Jw0Bf6w/sDAC0kLZmaXcC1NkGjKe2PzFh2IeeYxu2cBXKFROSVBnB14nMFV0Hwx7QEmnrI+2yZVysi4wRE4aRiAnDFq5CuWOiW31/wk5Amm18fwKahefgIyaM0icmDFu4CuWOCbwd/AS26IBxfM9Otr9n5yJjxIRhJGLCsIWrUE6ZkCRlqEcaaTB2x1e10/vYrsoxRSJiIoVxnHblmAlJmbdDaykYtd8xRPN2OBWZaBwxIWixXDOBj/DczO/EEMH5nTKeYZx8J6MeEBOGLVyFcs8EOlDjZZwH0FEZTJGZTmPDs01MGKVPTBi2cBXKBxMSzRfrqmw8SkRMCBoyL0xIkjavuEkXzEGaV1ywGFMlJyZSWcdhX56YkCT6/oRDafgSRUwImjVvTKAD1QxHnSbcx2n2mwcKZsOenNoThkWICcMWrkL5YwIdKPye3TF7W3vNsVg009nEjRz7wITws3TjbvIbIiYE7Z9PJiQJv3v64gcWKthnu2YJ5sEheRuMfiqbYbD2Y58aCuaZCB2uGNwoYkKwbPLLhOTb97HH4wtKni5lgoYNTnJiQrAs8swEOlBdckx1oNhngMcJDQlPkdnGlBMZ6DuhTg+mDBSs5yRJxESKauK0K+9MMAdKHvoB9sR+MBTKPHCbnHKZPK5wPwWfPE+2PcSEzSDpNgPAhCQNbIUlS5fIrU+mu1vv9xMT3ts0KGdsK8tsaQhE2xEdKBnGHcyDMYmJPBg9R5esaQ41ZfAvVAfqxMQ5us9kl5kVeznZLl/jiQlfzZvXk59endnlKwPChBQZmFkGsjyKmMjSgAE+PHMm7g9GrogJv8qhZNvYGTLRTTrhV1UMzHmJCcGiqATSCUGTFVpyYkKsxEgnKsUMVoCpiQnBQiOdEDRY4SUnJsTKjHSCdEKsxhRQ6oza2OPGSUwncJX/JQ/9TpXIA/bFslUxL6QTIqVbK0d7Ql1Uxsnp877kgYn6WEMlNDbEvBp2mHcbOt8AMeFslySxZXw4dSCGQUcG7nr7avymKfuTqyXEs1+wHzR1aSZiwqWhlGS1vFIEQSbYc2z8xu+mX+YQCak+ivmP5kQmKisrm3DZZv/wGItsw51CxSaWmJgQsxcTikDIBB/b8cBdD9wl7QC4RNoF8JMLxLKSSeqQDLKvMtFR2VRXVcV/eYw/y0ewhfFoXo5X1TU1VvoAKDEhVjVqsVQCIROciU2bL5Fufexq6eZrkI1cLCgUfslE7cCmquO8zl884vh3Dx267IorvjjJafniiiuuuOzQoREj8OOUuMSqmgZ6WyLEhGBVKguITChjABEFVAgUilsX50Qn8NvyfshE7cC6CMvGiO8eSgKCExwnnXTdFVvncjQidY3evf5NTGhM1DfaXVfH7QZocIy3R25r1E7s05r3OyETTCf4suOSrK7Uhj5L+qUsWpY+Eaaoc+/w1w9k8jDiX0+5zrnip4297opDI/AMkUaP/ChiQq1I9Z6/pL8tqyqa9mCNCdaegGtuzrY90YWfuvZ0cfmbUF8Xg4vnXpG24qdL8MXWVvxemSdOFDGhVr5G2GifjyWr7S/PAI9+tpLQEalJsiOj6A64cUaFupz1dS0kur54uXbEb8501+zqiMB3nZsN6SBI3P/FXIi1ZZR760HEhGqPOsgKgcSDz/b57Rtvn9k1wilada74jgdMVHwT3FTPDljuFRGMkeu+7uqqVgQStogJ1SRlpc1EyMSEFzpRcYqrxnhd1EskEIpYVUIVF44gJogJZgEzE5nrxFln6mLjjonW7yS6QFnFLAdhBBIOICZUk5BO6NU5hzrRCXOzQsB+8FYgJhIYdx1hHxdLTOhMZKETehvbpe/UEINI9n1OGhlXLIeziAnXCCQkJCYsJjH7TjnUiaoRW2WIzfWiUfHFoYsBDh0iJizlKrRBTFjMZWYiC50QbU+UjTjpujeqcYDGiENXZPrIjj3OfuNGfDpx1qEvTiImLMUqtkFMWOxlZsLUUtb9KXcB4/mES98JmcDlirnL2ePC6JnTDp3yhRAafHDHd9jBy7dxH4yYsBSr2AYxYbGXmYksdEK0PaEwwbl4owx9H7acNeLGQ1uvSCUb133xxRVbD313REQZKvsdk8gQE5ZiFdsgJiz2MjORc53Q2sgnfXHFobkjzlLQAPhO9DsXV585YsS0786f+8a/zp3/3aobR4xYfpYxZjy6vOHQP1mFhZiwFKvYBjFhsZeZiSx0IoP2hA6EEbgOh4Nv3Tp32vKLz1LGg2uU4Dp61vIRZd/9162XOQ+gJSYsxSq2QUxY7GVmIn86YWCRaYiYsBSr2AYxYbGXmYksdCLz9kSmENiOIyYsxSq2QUxY7GVmIhc6oY4ZNtrYtrqd6SYxYSlWsY00TKzdvYwPdV3/8O3qkNe1N43VBr/OGaOFlLV9m8cW1rhYMxOqTgz/4TnmHtgZd573iwGmiHHnzZtk2uRBSGlaTAAAIABJREFUE01pxjt1NXEq0jDx5z/950knPXmlACDEhBgGltRpmJjziQKDwYQJA0cGTPsLnAm1Zvf/33eY6zwykWJT2eX++UQtxBgVaZm45qSTVl+JYLhdiAlLLRfbSMPE1FFTR5Wv3Q2fPPyjmz6EPUPg0x/dNHbIaAAmHwoTQwD2lK/fDH99ZM6Y9b9fDJ9qiqLQUeg6MePO3yAFv5gLMGD4nf8F7+LWLwbMeBwWnjPxaYzrD++Om4SbMGDG69+AZxReznLfnugJMlKRhonrmE6sfui6qwB+ddK/8z83Ljw/FR/EhBgGltSpmdgw//YNj5QPGVM+59Mf7V62dveYtVtGIRN7yufs0ZjY8Oux5fuX7V9WPmQPMvGHUZhCgUH96zcTsW0pv8UruLPM/P4E71Gdt64CnaP+6yomPvRH9KKu+tWd5/UfgJvz1l1/Pv5B2Zg3CTeHP/ebxwdUXKV4VRadKEt5C13YryrHIl9PVcFP4r7T6itX34GpVj900kkfnvPvv0p5AI7tSHnVxJ0Obz7RWHGVFOu4WNQA+cRYrPDrH/7R52NZdZ866vOxQ5aVIymqTrDQkK+wkbGB6QR6Wigs5sVvJuTWsirv/kVMTCjtCfxthnfP7z+gYsadf7wSKbiDM8HqPlMHlQnc+/q9KCeYjC2W9kQk5WQGDexZQzRyPGUV//Of0Hd68qGTPkSJeA0PgF/9+zkpD0AmxGzS2tPyS8k3iAknJta/gu3pIWNQJzbMR59JYQJ1wsKERSfywESvxNLMPMbcxuY1e+JD51fgz79dJyahbAw7x6oTBhMWnUg96U1PJCJUX5VaJ076EGWBS8N//59lqBMnnbQxLRNiNnCq/05xYmct0NQpfSfuISEYu+H9bRoTJ5uYwF+s90ZZ2hPFxATXif6sU2niQ/3nYgOCtSeYMPRX2hP9ARZc+ZvHn/lKbU8YTLhvT9QCEpG2jX3Sfy9GsTppNTZgeHsCzkmvE2L10an+O8WJnbVAU6dkwuwDpQ6z9oStZ1Y9wHffyT+dMM1RwJ2i4eg7uVrc60QXIyI9E6kdJYe9om1sp/rvFFegtVzstj1iYsNibHc4YlO4TJifY4sxYWlPpPSdOBHEhFid9Tu1R0w44sAjC5cJU812pQ5GIvc6oRZvmr5YByFIE0U6kQU4xITFeOY2tlknjPruJuS+PUFMWMwfjA1iwlIOZiZIJyymKZ0NYsJS1mYmstAJ/rSPK0qa8U7qxcl3spRCnjeICUsBmJkgnbCYpnQ2iAlLWZuZyEIn3I93Uq5OOmEphTxvEBOWAjAzQTphMU3pbBATlrI2M5GFTlB7wmLVAtsgJiwFZmaCdMJimtLZICYsZW1mIgudoPaExaoFtkFMWArMzATphMU0pbNBTFjK2sxEFjoh3J6oTjNWQ3T3XME5lJ3G+znFWYxVrBvEhKVkzUzkUCdC4N1M+wyfL6DOkq20G0713yku7YmKIYGdiS75y+Tj+TLZczZ498VmJ4PLno4Vr4F/0gc0ZaETRnviDVef86uNxbaKSkGK9Fdc3Oz+G8TcqE713ynOqQSKLs7ORA30fyqTqp/smCPtMX9t5i0TtbGv61B4oBMzvvkdd989ra+C9n/y4vMTOOP+ZdXQWStodKf67xQneNrCTG5nQqpj7/t6uHjyWdoUtvWWCakm5vEHslO+PmHKV00VRJcfytaF+mLrjQDjXX6T23R1p/rvFGc6pHiDCUxIHYmTOjjEjKse5xCbGNUo+oslamqPmZBqGxMzkXlMo4DjWNsVwd8inDA/MzBwMvIReHysTuCSurGd6r9TnH5AMQcSmXCX295wmruEfqfymgm/7zfl+Wtr6vBDQ+zbE/jpCbdfZcHZxw/dWA04937sgAiD5jtxqv9OceZjijZMTAStaGsrQ3Vl6tz61SNGzD2EwsEWvbVxnbJ92aFD+JWKEVEGA8DxA6G2TARCzb1T/XeKC5qxfLkfYsIXs2Z90vrKmlBXVVknq+84A5Sy0v6qHLDNsrK6UGNlFjQod+pU/53iss5XIZyAmAh6KdVXVla2qS2auojWtKnB2KxJMLLuVP+d4owjijhETBRS4TbIgs8d3GbOqf47xbk9X0GnIyYKqPgqQS7z53ad6r9TnD9XD9hZiYmAFUiq22nAdoU/QuFU/53iUt1d0ewjJgqnKCuxTR31Ryic6r9TXOEYK4s7JSayMF6OD23AR+yyP0LhVP+d4nKc4/xcjpjIj90zuGollI1rDcWqMjg07SFO9d8pLu2JiiEBMVEwpRiqlJ6MSPUhD7tg9bw71X+nOP2AYg4QE4VUugMjPt2tU/13ivPp8sE6LTERrPJIfTfERGr7eLO3oJl4EgfdsjGAT3pji+CfhZjIRRkVNBO1clWt3KvRn2ZnLqwveg1iQtRimaQvaCakMuyxxw5Kv9/RyMSwvhxDTPhiVttJC5uJWmQCx4ba8pSLzVNn5eIq9msQE3aL+LFd2ExwociDTLzTE6BL/e6WH6WS7JzERDLLeBlf4Ewwoci9TDTGYNgSufV0LwvC1bmICVdmyjJRgTPBhCLXrYlTO+GMCeHwB0OhwY/HZ6kKlJhIZR2v9gWWCfYqjYvlSfm4i1SYxCuDodvUvi8ej4fD4Y2xqGcOVIerXISaXSUTz63T8zmnOK+sGOjzBJWJDjaHRdpFlrHXyd1S5Yn7P7gxJu+cjjywJT59CbTWdHtRvl3uMuE6VURAPOsxLav/dgMRE4Il6/e8HQeg/9e8XPpDl2AOnZIzt2mpwkMYlSKODpTshQNVI4+47BRleQPmqiHR1Tfhu9ohI+CA0+0niSurq+3Vs77JfggxkcReyaL9ZiIyNNnMghnGD81+qNBpPaF5HyfC9OdYzIMeqKqoPiPnKfBNPSwWuF42jlwuMvsivpfROT6aMAidmEhW+ZPE+80EnJFh3U92WB9IkhO30YNfZm4Ta0iwtoSxoAPVfHqWDlTZ1/Xqfwr8ox4WC1xvoklsXvEGQB+0wW4IYsJukTTbfjMhe83EGVkycQNzmxKJQELi2fdAlZkn5889E+wFvgSZ4G2MNLWgOHcHtY3tuU6cIWdTgBduk5s3atpg1QmMjaMD1cveRBW5nCdMmL0uMZ2Q8A2+BJkgJkRKkKUtKZ0Y/HIUWG8ThyGBCIbKhCVyNg6UhQmjVVAx8Wn8AX/3/BQ+VNM5+s7MfScJhSKxs5p8J0Eo/GYiSDpRWc3cJq4SjkDwPauGwvGMH+FZmDD5ThPvwBp/1QC92icGPvKEifrxDrPzExMBYyI47YnTtkHzRmRB+Y/Xf8c/a45F5UwdKAsTZp1QmJjxOCw8p2IeLJw2YN6kiuFXnt8fYBJuwzPj4JnzNFAy1In6gduUxx7HbXPAExMBYyIoOoFukzxMfUiXXCQUSCYchdh9GfVAWZgw6wTzndZV9EcQnvvjc+fNeFxhYuJD56N6DGMSwf8oVGTWnqiJATy4ApeP2gGazI0iYiJgTARDJ7pvqIahS22dr44qoUSuelE+fq6gJVlyCxNWnRj+3HkVVyEZC/siCP0VJsaxH/ZJ2Nh45jwTE9fDG5pkVLhtY9dXye3X9lCXwyshYnL/iAnBkiyJ9oTqNqXTBxMka7ZHsQdKWCssTJh1An0nFAXUiQpUCoRjwLx1GMF0gi/9J1mYMGhyyUR9J7ykEcHWr8WiRlubmAgYEwHQicFNUXnJdAOIQbfhr/OJfiYC1GB88mssFOd6kpEDZWHCqNkVvI3dfx22J1ASUBdGDBi+GN5HSPBOBqB6PHPeVdjQUBfx9kT9eIjebWZibzXEdKUgJgLGRP7bEzdEYOgHZgAGXeTAA08ws69BTji+qh3Gmx2oTa/cJUn8T1IbW5gw6YRW3bV1/1RdUOLtiTr4SI6ZoNg7FKpiEa1NQUwkLS/nHX77TvnWidoD0HzMTEQ4rDLRArAg3DL6zdW3wSeXzsatvpM3w0hT0jhzoOq0moXm2/TLq6UHkIvki4UJk05oLGjrlEwI60QlPNjjWpNS7O2Ej3p8DNpXKYmJ5AXmuMdvJvKrE4NDUVDcJpMAcN9p5JRf9wsvGtnSN4z/zXzh0fmzcWtmXxMSzImaMNrSA7Xrkl2XSDsALpF2AfzkgkSDWphIoRMaG45rYSbKYs/3QCg0pUCV+AgdqZUxFWdiIrGgUsb4xUStWiC51gndi2a5bsPepg8SepsUnZiyNYw4tIyMT10dn3wpVnQUChsTSEX8iMWBuvntq2997Grp5mvscqG2aC1MpNAJRxa0SNf9Tmpea5X2taYUKhI9XoMapeSJiZQEJO70i4n6iNJHnlIn1t401jL81b5t2alupBnvVBkZqGWydpocO8b1wSQSKAQqE4pOjDR0IhxOYAJTrzkbHah31HOiTKBCoFDcutiqE3VVnAoLE5nqhOv2REi5aCMc5u1rBQoNiR49YuqLFMSEViNcrv1iQgpBjFGRUifcMGDnIt242AZoHcjyfpC5Tfi6deJiaU+MDKMrpbQnYORMsDpPeCy+nYoOVHOj0i2LTDCd4MuOS5Q1/1sfhTKkwsJE5jphHJmyL1a96AFQu5wYFAYSPVaqI4iJCVNBuQn6xgQWWBSpcKET6zfDe6PKh8CJ3466aeyQ0QDL7ByYt9PoBBsGJyMVzG1alciDQwxrTyxwiNeikArmQN3PrIlMsPYEXHOzvT0RwjnbyiotTDjpxPDXn8axgNgR+8xvXj9n4tOTZryud8FqrlOF+/ZESGYolrVr3bAIRYS3JXjES8SEGwIS03jLRPcNZfrSyl6xjrnQif1jyjdse2r+7ev/wJjYUz5nj5kBexi7GVMvOMaBfXQ3Zutt0qp4whp7m95crTyTSNjH2tl82QnQmvKyykyGseV6zTZ7QHpkxfAfnoMY4GjAiQ/1nzRvxDr9qZ2RxMZEdYolgjmVITZeYwI7m6BK31ihzoRCOpFY7VPGeMuEdHqsKaT+i8gQjYZc6MTUUeXrX/nbmPLyqYyJZeUbHrFzYN4+A7TP6CZZ47fi5NbQcRzw51DFM4hiuGyMyQ1dSa6nRNex2tkwPt07RTjur2LYvfjoDp4Z81D/e68cxp5s2xYzTXOhJsWCY0NkuWH8Sg0D7ITVe5969FhBOpGy6ifd6TETNdXalSoZEfVu2hNMJ+ZvYDpxsismtCs4r0P4i44dLt33Ncts9qZsF6YT+P5da5vz1fRYfO2zoTJ9e4IzwXSiomLG6yPuvfNbia4T6oTb8U7KRau09gR7LqH1PiEmDxITevEIBbxmIqJdvSyGREhSap3YjT+Ye6ztifQ6oV3BcV0fY0Swpb6XLO9cY+1yckfIlK3mo6YPk6PjDirnTPq3EpAIWxvbsT3BdOIcbE9gq+IqHNHh9J6R6/aEetEuwMcTuCjNa+M5RbNaFuQ7JS025x1eM1GtXqaDE5Gm38nkEzGdeMXaM2vaawqm6XeqUYlgt9FxHKc1c4eBOVWcPbrQlvjGGFT1VjOVfIXf42KLpY1t9B7ZnKM0m66ZUC/aBh8bSLCHd8rYp+dlddYfYiJ5uTnu8ZoJXSfUq6XUCVNVL98PgE2K9Eu6fidzLrtPb4Y+E/Qf/UEXfYhj/7BNjV2ui3BkB3ug3bel76DbXpiNT+9YxJa/vPDUZviroRNLh8qRdG6T6YoWJpx0Ig0OfLe1PWE6e7JgjDUojE5YFYoV0KEcQEwkM1ySeK+ZqLZdJ2W/U3oCElOk0Qnb5dGBiu5co/7oD7qNPaH7rF94yvynLp0dDnM9wPDvf91vyxH2CG/iltU4wiPconbNxpnbFErnNpmvWJWu38kNE651QrtyCK41IaEqxfOxMnU/MaEZyuXaayYy1onE2u8cI6ITzAYdDdB+RJEK9rAOOUCJQGFgIwAx1HfQliNbp+6b/+gjONTjq4v6DUIstPbExmaY1lvoHQpPdEKYifpY7HlljBPzoXBhbYqV+mwFxIRLFrRkXjNRrZ1YXedZJ/AumAM1mvdAoU7E2RAn1AlUCVb7w5Pf6tfSp2/L2WOUIYEIDeoEf4QXX3oGiLhNPL8WJjJvT7jtd9JsXYn9wGzYn75cixH6HKLEhGYnl2uvmQicTqAd6rtAPht7oFh74oXZMwE+ffiezagTU7D7Bx9iyyNn4kM7JhwoJHFsbrz/Rjg8fVhUFnKbuL0tTIi2J36hvlQh3J6QpBqZDY01LSthml4BiAndFO4CXjNRbbts/nWC3ZDiQCkDnfAZXHwQn2Nf61vCtdoO5yu2j7lNtbasuNi0MCGqE9pLFcK+E95YDcT017F79Dg8FOqMuyUmDFu4CnnNRBB1Ag3RXYMO1KMoA4wDRoWJh8Qguk3VAr1NhqEtTGg6MfzO/8KnEWzaswHs5VM2J8HCe19XRjuxR9oDhq98eh2f4EZpgWfChFQZgfYV/FW7569dCbFG455oHkCTLVwFvWai2nbVYOgE3lR9lxzdvobxoKtCIgw8ZvpO7G0abMuHu00LE5pO4BgnnJTg+vMr5q1T3stmPpI62qn/OmV2G5y4ACe4yYIJSQqx0U98iZlfDlS+SeHu9ossVUDmi60JqE6w0kYH6sVVqkCk0Il9zXAgA7eJ1ycLE7pO4LPreZOYRKxjs9lMwqfYC8/BMYBstBP6SzNev/fK89lYQM13yqA9oVTmjlBXdaQuZFc48p0U87j+WzI6wSwysBmOTlCkwlEjkBTW23SDa+vZE1qYsOoETlaD89coU9lgSB3tpOjElecrE9xoOiHa72TchlP9d4ozjijiEOmEm8JVHaik3hNzm5oGCz2SsFzWwoSuE9iewDkAsV/rStaomIQhnLhGGe3E1GMAGxiIE2SOyM534jfiVP+d4ix3XawbQWGi2mbgwLQn1Pua1SDrDpRdK+L72uHAabYMCG1amNB1Aqu8yJJRG1u9Taf67xQnlKtCTRwUJgLcnlCL9slW5kCxprZtmYC9TZm7TfzsFiZ0nRBkIuP2BN6CU/13iivUai5030Fhotp210HTCeyWPdgVjW23IxFfw90m292LblqY0HRCRCNYWrNO3Ahit+BU/53ixM5aoKmDwoRdJ8piXzqPW8ow9stmbWhbFgU1qyzhZW10m7Zl5Tbx2ymD6zUCPPme3fXR42LZdKr/TnFiZy3Q1EFhotpmvxA09/FycfoQj+2SbjbRgTJN6hGf0AeqlTcg3BycPA1OkPD15Wcux//OvBguPhNXPLych9gW/kv8T4nX/y6HizHMD4yB+eFb8uvqe5zqv1OcfkAxB4LChF0npMYyPmmA9jwpy3WMzRjjxXJwHM5ioDpQa3ZGoy9n9pDOfiuVZcfVHOIXSLNeImU19guk2Xaq/05xaU5THLuDwkR1wZiTOVAfsGb2vnZ524UFc9upb9Sp/jvFpT5LkewNChMJOhFg+3IHakIfudMj7QlAVp3qv1NcAG7V/1sIChPV/mfVuyscHCfHIPaydyfM+5mc6r9TXN5vNBc3EBQmCkknsFxmHS8at4nXMqf67xSXiyqZ92sEhYnqvFtC6AZq1bnyhA4KcGKn+u8UF+AseHdrQWGiwHSiFtLPU+NdIfl/Jqf67xTn/50E4ApBYaI6ALYQuAWVict34+TI+ozhAscHLalT/XeKC9p9+3I/QWGiMHXi8s+33UVM+FIx83jSoDBRnUcbZHBpTSd+MPYx9gWiHQA/zuAswTnESROc4oJzxz7eSVCYKFCd+MEFOy659bGfPncBfpfLx1Ly/dRO9d8pzvcbCcIFgsJEdRCM4f4edJ244PLP//uxn96Ln1zBlkXhLk713ymucHMocOdBYaJgdUK6dfHbpBMCNS74SYPCRHXwTWW+Q0MnUCHepvaE2TYFHw4KE4WpEwVf/FoGnPwkpzgtfVGvg8JEdWFZWdWJwrrpFHfrVP+d4lKconh2BYUJ0om81imn+u8Ul9ebzNXFg8JEda4y7M11SCe8sWMgzxIUJkpdJy48tdLDRXg+QidNcIoLZB32+qaCwkS11xnz93we68Rp2punWb92qpxAru4Qy79T/XeKEztrgaYOChOlrRO9oL3/2R4uR6FKrD461X+nOLGzFmjqoDBRXVj281gnjkcznKIn2WGjY2L2dKr/TnFiZy3Q1EFhorR1ovqMZJU7w/hhIDafiFP9d4or0FoudttBYaJa7LbzndpjnYgQE/kuUdP1g8IE6USGiuB8GOmEqY6LBoPCRLXojec3PelEfu3v69WDwgTphPMPfoaxpBNZUBMUJqqzyEMeDvVYJ6iNnYcyTHrJoDBBOpGhIjgfRjqRtMan3xEUJqrT32qQUpBOBKk0PL6XoDBBOuH8g59hLOlEFpwEhYnqLPKQh0NJJ/Jg9FxdMihMkE5kqAjOh5FOZAFQUJioziIPeTiUdCIPRs/VJYPCBOmE8w9+hrGkE1kAFBQmqrPIQx4OLRSdqHf5dpHTeD+nuDyYOveXDAoTpBOKIuzfU16+/pWxmcnD+odvVw9UdKK+KVLvrko51X+nOHdnK/BUQWGiurDs6JtOTP3LMq+YqG+KQcilWZ3qv1Ocy9MVdrKgMEE6ofzCTz35lbGoE3MA9qzdMmrD4jH4t7x8yNlRWFa+H+DT2/HPHhbaM2TM2t2f3j5kzBAWMWT0e6N2wycmnXinKRaFqEuZkJzqv1NcYVd2l3cfFCaqXd6vz8nO9eiFaNHTDNWcpamj5uxZ/8o96D1hbR8zZ/SeDfPRHxqyp3zDth/dXb52y8ms2nMfCSN+/+t7tjz767Hl+5cNGYPpy+d8avhO7EvKAp8V7ploWGIi0SYpY3rDaSn3C+6sCYhO3A9dje6WGzycZqOyVX+naOqo8v3PvnLPYqzOiMMDr176wBjEZciy8rU3MfF4c5QiC7h37ZZnH5l6y/wNj+DuMZhgPzpdJp0IRaMAna5vclZigRETiTZJGeM1E9Upr5aznffDqTm7lulCxnt2yMT6zSeYTpSjKox+9qbfouuk6MRTj2AMbml/howeM2T7mA2KTixjOsE1hSsOtrHrQ1EZsvlaMTFhKiE3Qa+ZCIxO5IUJY6w4MlE+5wSTBBhTvv/E2P3cHcL2xHuj1m+G93777GaUCAxhG2IOLJvz3qhyRThQSHbD+9sM3wnfx0YqBKfvsJQ8MWExR/oNr5moTn/JXKTIu07wX/mEP+gaiS3qM7v6UEfmViMmBG3nNROkE6kqfaZMCBaqNTkxYbVH2i2vmahOe8WcJMiTThi+UyoyBPaJju1wMi4x4WSVFHFeM0E6IVDj0yclJlLU3XS76PmExUKkE4Y5SCcMW7gKkU64MpPLROQ7uTRUTpKRTljMTDphmIN0wrCFqxDphCszuUxEOuHSUDlJRjphmBkHzHGdcDtwzjgy2xAxka0FvTw+IyZqKiWmE5U1nt1JIMY79ZpWi0zUTuvlWbbcnoiYcGupXKTLiIlaKHtSfrIMXL7E5SIfNdUuEvmdpBagAf95mC23d0xMuLVULtJlxIRUxwci13l3g4HQCQl5wKXBu2y5PRMx4dZSuUiXGRO1vPJ4JxNSIHRC8jxbbkuQmHBrqVyky4wJqS4KsocyIQVDJ7hQ5EEmJGIiF3Xd7TUyZIL9onooEwHRCS4UXmbLbSn4wITbSydPR88nktvGcU8deCkTQdEJFIp8yIQ0zetvPDY3O5aaUCQxIWQuSeqA+wSPSJk8GO0JSXoSzk15nz7tvAHkM7xcmsHh/WrReycmxCx2eivANId3eMXOYqQORnviwp4AsUbjrnIXavP2o/GRXh48dyQmRMq/owGix46CPO6gyFGp0gZCJ16OQp9jzfhif6o7LZ19xIT7sq7vkmHJhHB81YvQ+qT7w1KmDIBOVFZD+754ePpOGXq+k/JmS2QnMeG2oLtrmmHoB2G2rNkek6u8caDyrhOnbQN55/Q45iq+9AyINop9ct2t8QoqHTHhsrjQbYodY1WHLxOOylFPHKg868Rg5jZN0LIV34cOVF7m73BZCLlJRky4snN9F8CS6RoRbL1qqCcOVF51ovsG5jaFNSRQKrgDdaErkxRvImLCRdl2n87dJqPuYO0JrzkWlcuydqDyqRPoNkV3rjGDjuGlfSD2crcLoxRvEmIifdl2HIfYRlvVYZsTjgJk60DlTycGNzG3ySFb+9rl6pLugSIm0jFR30uWh/FGaGL9+SBrBypvOnFDxOo26ZlDBdwZhW0l7EARE6mZ6L6vWR661ORym+oOelDxYzFoyMaBypNO1B6A6Nl2t0nLWjw+gTlQJdsDRUykZOLc49C80YkIVn94+2LCEpC7Mn94mhedGByKwugJcbx/cxNJQ4KhHt/XDiXrQBETyZnoru8F6DYZdcU59MFQuXVg8rOk3pMPnWirhhePJCdCyWUJO1DERNI6231fDM5Y6vxLaqEjjuMiMnWgcq8TtdPk6PY1qkakyt2EPnK0JB0oYiIZE+eOR7eJ/ZqmX+LTM3agcq0TB9FtOsrdJsxW6szFw0dK04EiJpyZeKeODXlgOKSuOAow8XCmDlSOdYK5Tat4juI8Y2kytwY/J7fN0+8yOVs7WLElzcTluy+RpFsfuzqhSLC3iblNWGPSVBoFCY7ORuyBEv/ogQ86kTRXUm/NbWLZmrIYoK9x/6ZQPDzoWtxEarAHajREm0qsB6q0mfh8211OTNyPbhOOFOWLeyimD5PFe6B80InLk+TqYEhGt0mr+1N+3S886LaR2qZ1PWWr+muAPwtHXoTqG0rqwXZpM/GDsY9djTqxC+BtQywUt0lpSbgmAutUPL60U26uEas+fuiEmqsdAD82KWBbBIauMqp+i4LD5M3w5urJv1+8YMtfXnhqM5zoN+g2jLhNURAl92u2R+FAKTlQJc7EBTsuufWxTa/cJe1AL4ov3Y0xuc9So+6IhOLxjdgDJeRA+aETP+C5+ulzF0g3X6NB0bsKYtvNPQZTV/Mav6hveMr8p97qN2jL6vDAuIR6AAAgAElEQVSikRh+YEF45oIpW5XmBvOf8N+E0XIpOVClzsTln//3Y//2y6ulXepP6v2dbMhD5gs6UCDyCM8XnbiA5eqn90o66QfHRWXDbWK5i6NOxOO77p66Ojz5rXsunT3oIqYQACemjkQKmO/EGxRsxRZ8jSpyg8ZXsa9LnQnp1sXrDJ14pyfvbVJ/JJXqIPKXHYhv5jSf7tqB8kcnMFdvm3TC5jbxHCntib6KTnAm4qgT4XALE45HH9EkRXUe49yBysdsN3kAsOSZkHa8rbUn0G2CPo++1Q9rBq8e4Zl9J186G38v8ccUo/BX9E0WSL3EJ18q4kD5oxOoEG9frbUnZqHbZLwNpd19XOl3UtoTnIkwhuGFL1l7YsriBarbpCXno4CjoZLogSppJqy/Qadyt4k5FWGOQhiZUKoE970ZGDMXGHUkWQiPnT4sCi4nkPBBJ6y5Ym4TvkTOlmQdBtjliospP0bYopj4GlV1m/XsRblFTKjFyt2mNVhxpsyfjTC0oGvdj+tEC5z4xWr0vRUm2G9pX6YZC5j73bel76DbXpjdwpIvCLeMZj02nzBpWXqG3Hy6mwrjg06YL9vd1iqrL5EbFd1U+5MFGQsWHpSE22PRab3N5y/KcOkyga6QdWlWeiqxBwb/+7/Mf2JMPDp/9uQ/rMYKhRwgJp/1Y/00rNqzvhkW/v2v+205gp39i0aiK47/zXyBuVvhYQBdLmpMjfUefNg6yqszI8I1FXrCBCyWtsuxbIbGu7BI/pOULBMXVlqXtm2yvJNVn/jMvigVzNvmTOxAz5pJhNKo4GigMDBZQEj6DtpyZOvUfdsexX4aFIuRCAa2J5hO9IFmV/MFvmO9C8+3arhOiBPhKBP4tohMOpF/aHN3B/d3yu1HsPZMvnTqSFaxdZ1A2cAqwhoV8TDWe+ZchVl/PvZi9msZ3bfl7L7YiYO9NriP99rMnr4zKrtsT/iePd6emM41Qv35V/pcWU9CskWVB/0phZoO3yqk9oTvBRasC7B+p9HYHF3En+bC9r7Md/qyBd4crTGBrWyATy+9ZzPqBO+3ic9ENcHeKC4cyATWt/fnb2wXfHDnrxl6V8mxjWo1Z7UbH0XwLtfkRLA9eIDylEJNxsb+Ur+TvyUVyLPjsA58t0CrBeoa6wf+wvKeGV6z4oMsnTR6KjWwtI98lvvnEzkxAz6f6MQXQTSdUJjg3iHvKMDQm6u3YAcsuoLYSQAjBykDPf6qPc3GnLGXbA/Q84mcFFfQLoLD/9pNo4JYPVKrkh7QK5edBlZ18PU08YGAvhsB35owXhjkvtMLsx/F7jUcxIE3jfoWj7f0nTl6AR/agR6hMtCjxeh5xqHw9Bzb92IK6gW6G5u5A6VXeE6FykEqHPgB+Bqz2HinXJmh9zT2hhS/R+47xeMMDaWjgD+3mzJ/6sSHp2I/QXzQlmdxoAe2oXjPGjtk+pIojndy/Ww+V3ny6zol2++U3KDv1LGXM3n10bWBbaUFAqe7EB4Xm/w2vN7DHSiWD2SCcY6dafwRJMoCexg5aMvRZy/67WrUBozAFItGak8o4/hmCI2L9bo4Cu18+Nrpi7oDxVDQcdADrHLZlmC6TYbtVQcqruoEdgt8cumj7MUiDL25Oo49C4temM3UYyRLgeLx/hssh6y3qWSG/3FrkU4YlUYPdbP37NRxpKbWRCogwvEj7XIw3SY9W1Itc6BYPWeZcsiNNsSD7cJ/TE1wnG+M3rMzTFjCoe53esn4vgGrP0r94CG+oYWsa3xHs3lg8A3WVi0rU5FoWcPc2RZzBHOb6H3s4Bdrru4Qpzvj76VptUf58bRVIGUzju/yB7C3yclSON2Z8rkJzJbyn5EjPYdqAN8bLMmJz8h3cqo5PI47UNN5xVG4wNrDakvisgp7mwpmFBBOi6m8bO6UE55FNYPMbaL5nZJWj9LcweYBjB5TH9DpP6J2JNjUFpnPA5gHy3bj9Ml9nOZyM7LIQhubo6XnNvHiIJ1IWStxmn3mQGk/qQ4ysWY7ztbh2ScfU96MZztxmv0oTl6l5cpKuRKLbwt2llZvk2FdYsKwhVMIP8ciL/m+raFtVKI4uk3Zf5jF6cJ+xnVLpx1weO1c1wn2uaLSnBaTW52YSFf58PsT2qubeqXRoMCvsnj2BdR09+Hxfu5AYT4SxAIjcBBjz1KavMZmWmLCZhCHTeZA/V9Htynq4ZeyHS7sZ1Q3d6C0x/UcchV55jaV9IceiQkXFY99z24J9kBZdWLVix58z87F1X1Lgt+zS5y3B9/9iDWWztgmJ+MSE05WSYjDz8VH1SF0qt+EblPEqw/HJ1wuRxHsu6fmT9oh8ziIseeFJTPaz9nOxISzXeyx3cyB+kB3v+PHot58H9t+nRxv4/exZdOnTyeUutvEzU9MuK2F3TXNUe0T2Tgt3rSCeUiXOoOnbcM3bpXmxBrsbWosiRmcUpuEmEhtH/NedKD4Owj4CbtIW/H4F5XV7ON24TBzm94x57dUw8SESMl3NMAZH+DkFeMOFg8SmP+XZdiOM42Udm+TUQ+ICcMWbkI1zSAXi9tk5Pe0ngCxRmO7tEPEhGD5d4CreZsEz5r35E/CuXm/h6DcADEhWBK9oSif8NZC8c956bakiQm3llLTFS0TD7AvcOwwf9lI0DJFk5yYECzKomWi945rpFvxOy60EBOCdUBh4vLd+FWsYvpRrZV7X/6DC35wwabN8JMLLt8NoH3LTNA8xZCcmBAsRVUnNv3yavxP8NgAJ2ftiVsXX8O+gHcr/+xXgO/V71sjJgQtrPlOOy7B6nMznLgLf1R/coHgSYKXnDGBQsEUArNzM+lE8IoouHekMXH57h8z93vTL9m3FAt/UZnQv5S66eeFz3mmpUI6IWg5jQkJm6S71B/VE3cJniR4yTUmsD0Bb/8UZ0Kj9kTwCimod2RmQumm6ZZ2FX4FYkzQoliAdEKwJpiZwPYE/1EtkvaEoCWKNjkxIVi0OhOCxwU8uZ86Ud+4rcrDpW6gz7YkJgQNTEwIGkyqj3j95Uo3H88UvUtTemLCZAw3QWLCjZXMadqg/5flXi6jocN8fs/DxISgSYkJQYNJIfial0SUl38NakTvQSg9MSFkLkkiJgQN5gcTIdF7EEpPTAiZi5gQNBcm90EniAnxYvDxCNIJUeMSE6IWK7T0xIRoiRETohYrtPTEhGiJEROiFiu09MSEaIkRE6IWK7T0xIRoiRETohYrtPTEhGiJEROiFiu09MSEaIkRE6IWK6j0lfX8mV19ZUHdtZub9XEMIDHhpgAKNk1lrKkDZoVixIRAERITAsYqwKQNEIWo3FCAd57mlkknDAPR2A7DFi5ClQAyQPHJhOQHE/WKQUknXFSsQk7SIEMxyoQvTEhlA1lRm5mYw16lGGMaJjtllGnDGvyPsabt9a8ZG18DGu8UJIZQKIpRJvxhogZakQoLE8jD+ldMlX1qUibW3mRKVj7HBBIxESQi8F4aoAhbE5I/TEitILcOdGBiCMCectSME3+DE1jz1+6G90bhH1hWzvcMGY3BIfDpjzbj7vW/X8xDy3ShICYCxkQlFPqXHR0Neho0lHm/dGLjS46Z3inivtOyDb8eW75/GZcI/mcIArIH/6x/5R6+h2+jTuxfVr5h/o/+MGrtllGkE47FFojI3tMg2hSIO/H2JupDoVCT5/8OIBNRCxPcBdrwSHn5kDEbFqMKKEwwDRiyrHztlt/xPRjc8AgywSYlPHHPw7eXTyUmvC1uD892cBzEdo6G6huK6tNdHhrIdqpWiLbW2H2n8nJFJxgHYxQmxqAePGDSCZUJ1AlsfhATNqsGabO7LQJLJsTj+NXTA0X5YRavjY1tbHxzOpEJpdWwH0Vg7P43sZFttCfWKu0JzsTuhffgpISf/khhwtRbRe0Jrwsq4/PNmgZDV7Gv5sbXbJejTYMzPlHJHFjG5xIwM6G3k7MJEBMBqUEHx8mx7fjFXA5FfMJoiNwQkDsL7G3QM7vAFo0nN/ZkBI5OUIjgVISPtMOBWk9OXewnIZ0oyhKeVSW/yN0mnYp4eM3OaDREDlT68iYm0tuo4FJwt2kN4qC6ThoYE/pAdVvB5SbnN0xM5Nzkvl/wyVbFbbISgVvx8L52eRo5UGlKgJhIY6CC2z2rDF5cZcVB0wlccwfqYMFlKqc3TEzk1Ny+X+xglxzdviYpEqgV5EClKwRiIp2FCmo/uk2j8SGdSRjswXg8vq8dptFHfpKXKzGR3DYFt2dWA7QfsTes7VDg9vSdshwiBypZ+RITySxTcPH16DadncptMtGxtA9EqAcqSRETE0kMU3DRA1W3KZXjZFAR39cMVeRAOZYyMeFoloKL7GBuk9qQWIRj1fpNvnS2QYBDKI4OVHQcOVAOJU1MOBil4KLqu6LRnYrbFA8v6hsOz3zhqZRMcDFZegY5UE5FTUw4WaWw4roHNst9+NimODawVYGY/PDv4YXZkzfDm6vDLQALwqgeC8Iz2R9lYVhsbIeqWYWV2RzcLTGRAyP7ewnmNu1jvU38xz8+ZSur8/HJf1g9aMtq1Iwp8x/9db/wopeZbkx+q1+4BWVETYs9UMOi5EDZi8cHJuh7dnYj+7ld3wXyTja2iS2MCtQJXH3AVlNXT10dn/zW35CSlr5MLKYsxpcjVaFgmoILOlCtRfnCduZGb4M+S7N5XcJ+7NJv0HdPMy8NV0eqo/x52u7Tm+EMfUg4q+Rqe+LEPZwJQydGhsODtjyLOqEuHAge3tgsT7M4UOYLuLqjYks0Hn85PF0O+Gshmgewtkyf1o+7TfhkWqvoyk+/1u+EOmG0JzCktCeA+054BBMKLhbTh5l7oGrr/BV6f6uHN2evwQkQXCwNB1wkwiR+PwkiJqQ6UKio74Vu03SdB8V10vhAUthi2msJqp4Ti8M0SzshojhQtT0h4k29KoGzlPk7vZ9rCxITON2XjFSg2ySfsdRS0a1UKLs4Fc5oqDLBFWNjM5TNkpAI2efvm7su6AJISExkUEhN3s/Kxc7YinOFQwzkjamIQA5MYmBLadqnJIpPHwYwns23HM32nqtezsBSBXlIFemEeLn1PO79tFxNoRDOVidD51kyzsphUwC2qUfxgL6VQIWVi50AB7bJUYBYlhOJhY7XiRuqMI8gncig3Hr2yuCgtIeg7yQ3VEqDm6I4e5O5quMzCTMRgy7q14LdTdry9//oN1NrX3MJUQDiHtSqF+XOU3ES1joPfKe6kmGCdCJtXU1M4A8TdYBEsOW0bRA7tkar8/gQ4q9bjQ3se72on1klbJsspbobJ7qJNSqzFyAV2baxS4cJ0onEKp82xhcmTH2x3TdUq9OasQqOlf4ifE69HWDkrt/jyI4vmU4Mug1Hd7BndSNb4IUdfXETRg7a8hccJciJQJVYsz0KPd/R85J1X2zpMEE6odca9wFfmLA8Uhv8clTWHKiZC+Iz+8ZbFuBwjqf+sDq+aCJjAjdnLnh0dnzmAkRmZl/cxAEet40MLxqJIsF0YlU7dN5vyZLlApY9rjZKhwnSCVcVwprIFyasl1AcKO4E4bM6HPbXMhIFA59ih2d+xZnAFkV8F6qDysRI9jibyclITsSEo+g2eTvBcukwQTphq4tuNnPBhCRVVstDPwijOuAov0VMGLhOYJAzwUYB4rAni04oTOAsHug21Rluk5sspU9TOkyQTqSvDQkpcsOEhA4ULJnOBrzGp8x/YDs2IFh7ggmD2p7A8X+fXPrlbSf+prYnOBPxMM43Pt7qNiXkIIOI0mCiA7s5UCfqgzAQpqCeY+eICUm6kPVA8Z6kOPpOyuBY44mdNsSDjfXgrQjuajG36T5v3SZOUGkwIUUaKsvGNcWICcGfzZwxIUk3dEaZA4UdsqwB4fTmKQOBw8BShdcci8l17/iAhFQiTNTg400ZWgVrhC/JSSeSmHXwyzF52HT+BI7VfaP2cwT4HxMVq4bC+HOTnCnL6BJhAr8HiQNhgiATEjGRtMqe1hNiG51YUKgwiIhPPyr74jbxWysVJmpwIEwgZIKYSIoE7ji1EzqXpqUifiwq96r3w20qKSbYh4MDIRPERCompMGNzIEyvCVzSNOJD4bC8XN9I0IqlfaEJOHX71IWRs52ku+U0tTdF/aEZvsYco0MRsX0JdDsR2+TcVdF4DtVNrlaYttcJWvCbltfF2IinXnRgUp414hRwXXiWBR6ZTl2I931C5+JOk9fxsaTNaazWXb7iYm09utujDo7UHHmNnX46DbxWyt4Jjpg9FP2uTey2X5qKPj7HRxiIi0TkvROT2hPcKDizG063W8iiqA9QfM7uahiGSfJ4TM72z3e34kva1t6oOIbWW+TLZkfmwWvEz4w4e9LqqQT7upxN/ZAmSf1QLepocPdoVmmIibsjhZ9M95UpfKnE3gT79RB8z5VKnAKp+Ya/90mnnVigpgwMWAP5pUJSbp/vNIDFd8Yk7ty4TYRE3Yc+DbphAmMPDMhSdyBwhnNcuQ2ERPEhKn6OwbzzgRzoKLQnNMhCOQ72cEgnTDRkX8mJKkLtuXMbSKdsONAvpMJBx4MAhON4NOYcHtmtW3SCTsYpBNa3cB1QJjIUYeTmnFigpgwMWAPBoQJ+235u01MEBMpalgwmPB+GoIUWaaxHXYiysvJdzJVmGAwQe0JU5G4CNLYDhdGyjhJMJggnRArQGJCzF5iqYPBBOmEWKkRE2L2EksdDCZIJ8RKjZgQs5dY6qyZ6On1G18i5xsollktdZH1O63dDSAvvOfhH900dsqoxPazEWPZu/aIsYPa2FrVYOvsmZh2amWWy8tyhidoftKcFffhYmPiprG8eq+9aezUlExY9m54xMJEJNsPoqU8vrWn+9LJe8rsmcj+Q0enQoZmiAzM7MCiZGI96sTf4MTYIQBjyoeMfg/pWL8Zt+cAfHr7nNEYOwe3dsN7o9ayj3tgaIwBxdegLMsPoqX+BJzvHxvOrCI4H5V3JvAtokrGRCZvExETij6g7wTLkInPUSc2zL+9fP+yIby+70c4vvrDqPIhY+Z8ejvumDoK49e/Mnb3Mkxi0wl/37NzrnwBjc07E5WRgchETSST2VSICc1nwjXTCWQCZQElYcgytof5Susfvr18zp45yMLDyMR+3PneKPS1hhATSYnMOxNSAzRDKzQkvcMUO4gJKxOaTpRjlWd79i8rn/OJohMqE1w/sN1BTKSoVvlnopL9sEEmMiERE1Ymbhq7/81R2J6AZQoTpvYEZ2L/e6PQzTpxj8LE4j38aP7H77EdKWpg8HblnwmpAb+lnZFMEBNGpc4yREyY0AwAE0woMpIJYiJLEozDiYlgMYEtisxkgpgwKnWWodJgosPVc7BTqw64SldrwsgaTCk0B13dRSM0ZnYTie0JV+epnDbNXbrcvhFrtWvKrYIb25EyNznaWV/FGq4eLl3JbjwVE/fJHt4Bnup4b+td2JnowE9VebkE4lNw1iwrW8SEk1XSxHXBiH88RVnmwlw1JLp6Qz/yshvlZM90UjBxKizXbuIUGCF6dS29fuRlc6Od1mzbmKiPRfXrxZZrx4uuz7pYO+K7sVhyfbTeSY63iIkMDF4WrdCWU+CftKDg+hT4R/2Is44nuYsUTIyD6/Xj4bt6UDAAN+oH3Gib/drGRI18mZ70O1/Xg4KBi8/UD/hmhm3/JKbyLpqYyMCWslGwl3nCxJnJxiSlYKIn6LWrwhMmvgn3W2xhYyIEM/QLnpU5E8v1k5zi92cZLLkR2CAmBIylJYVAMCHrtcsrJk7VMsjXCUwY18tcJ84yTHcKJPMYLbeR+w1iIgObB44J2fCAjIrrKmTynb4JrpnwSCeIiQwqX0APCRwTHvlOrpmw6cS8d893BSAmIp0IaJ3O9rYCx0R+dWLG69MGuGXiYnN7gnQi25oYnOMDx0R+dWLiHRPvqJjx+jfgmfMmPg0Lr3/uvHkwYPhzf1yMEcNff3qdmRfSieBUY0/vJHBM5FcnrhpQMeycGY8PqLhqQH8mGLgaMWneOoye+NAfnzvPjERFiepETid297Suuz1Z4JjIq04MX4xPtyfNuPO8iv4DMLzwnHnrhvW946pfPY7Rz/zxSmtToxB0ogP6f5nlCCfL4V8eDeqTGLcV3kU6OxPzJvFfR/0Hcck5PDjDeMil7zIC5md2GT2fMPXF5lUn+mPuhz/3G84EZm/euuENz/3xzjvPQ53AHTYmCkEnJM+/j13molIVeJJ0TAxTmEAvO8XiJRO51omY6ZndjNdZbvvfwZnoD6gTMx5/9zf/ta6C6ce7hagTklRTl3KeDG1n83gtlHJd11jg9d3N7Sdhov9cgAEV/eGZaedgWxPQeZiE9eIZ5lCjkgy/8jfoTUzC/ezPiIWXmcZ2FLROpOA+cVdB6ISbOsDSVJ/uNmXxp0vGxDpsVE586PzhPzzn+vPRh0Cd4O1M9Kg5E1w3cD9rhE6qKGSdsD2fSKz6SWMKoT3hugITE4apkjExoGLGnY9g1yPrhQFAJtiKCwVn4vyrUCLmseHWk7B/xksm8tqeSFr/nXaQThjVqKhCdiYmYofj8OfO66/qBHrY2KLQdILXjHlsF+rF8Of+F1thD40jEwmv2aQaA2hqY/vZntDuKWQac0g6wesz6YSBtZ2J87GNwFoSc7GBie2FhSPOwYgFV058eh1vZzIWFsP7D7FGBm9PAOvHT9SJ+qaEd4tcMmHViZeTt+0TusJcjHcqG8hzbmaiuMc7GQWdJkRMGAayM6E6CfyBlZPD4BhnZ6K+KWp7gQEv6JIJq06k6O9K2OWCiRpoHYi3YmbC3O/kmLmkkdSeMKpRUYV8YAKJkKEuwUoumbDqhFLxseHy7vmoT//7jopfYOOm4hcDKl6+A7vCrNXVBRNSK8hIhZmJBJ1gjyGWnIOXxNEcrKtt3gjW7Wa/GF6a2hMJZVwcEUmYsNa2dFtmnVgOSARAQ0I3d3PyOZR7Jm1PcCaw86ui/yTs9+q/jjV3+LALPjDJel+pmOhUb6cT701uPZCqPcGYGMZaUWxkBzadxmH7ydGDI50oDgQScuEHE1Fkoitx9um2hItrEWYmHHSC1dJ5b+ODNAWE/qyrS4yJxhAubELrA8hE1MKEo04MY09lnmEPYeCZr1COWC+bFUDcIp3Qyq/I1i6YUId3oNuSWC+UimLWiTOhPhSNyom+UwrDmZlwaE9YdOIS5ZEI7wqzVtMUOqFfuxWJqLH4Tgn9Ttjrpj7PZtLEn8fgX4y1Xq0w3p/QM54uQG1sw0IumFCHd6BDYa8V2raVCUlCKhLb2MY1E0JmJmw6gf1bMMBoT7BuMfRlnob/ccfEp9/Wrq+sXTCBbWw2rDNlewJFAXvbUBl4ewLexecxSi+b9WqkEwnFWCwRrpjAZiY+m4OF96Iz4fTKjZ0JRkVCX2wKi5mZsOqEqR6y9kQyoeLJXDBRpgx0NjNB/U68YEgnjPrpjol3z8fHdMPOwSd5Dj5EhcPzCaTCuEbakJkJq06YmGAefoL/YtpfkZ4J7Z7MTCS0J8ynTBmm9kTagi3MBO6YYMP+GBM44oMPHbXVlUSdEDOGmYmkOmG7ZuJmeia0uzIzkdCeSDxxkhjqd9LsWWRrMSYEdELETmYmkupEkpppRGfGBOkELynynYwKK8QEGwforj1hXMBNyMwE6YQbi3mehpgwTOqCCeOXOFnIS98pYDrBno3gEGGnhgy1J4xqVFShwDGRa52gfiden0knDKwDx0T+dAKfgrxdwbudlRcMcVTVxDuGX/nH15/GZ+h86BPzHY3u4LMKYH4no6DThIgJw0CBYyLXOqH3O7Fe5v6TcB5A7QVDPoIEmcDn2nyWAoy3jHuifiejGhVVKHBM5E0n2MNqWMffIsRhf/jUXmPiyvNn3KkMfTrPMu6J2hNFRYKRmcAxkVedUN82xxcI8TkMPjWf9zbqBGNCmc0G+xhMzyxJJ4xqVFShwDGRN52owPYEvmPOH0/OY0Oe+KgqjQlsT8C71nFPpBNFRYKRmcAxkWudSNbvlHzEo9YjTTphVKOiCgWOifzphFbXlbULJqjfqahQ0DMTuVivCj5/u0u/ZGKgl2x8S8sTnXgDOhKvYsSE4Ao913q/kx7jNmDRieQvTBmXDXKI+mKN0qmSr9fqgCdMXB89YJzcbagR5mo3UeGJTiyHg6muXWkCz5PxTiNSM5jqXgKyj5gwCqIN4OIzly8/c/mZZ14sYwjDggseox2JwVgmteOdGHyHXxhPoIYEb4JlAL6j3P2Zyy+G5O9+86yXySzL7KAz5diZuOJh3GJRPJqH9U0tmq/xD08uR9l+FjwLRN4WMYwfoBAxYSqMtrJqYJMKgMz/spDoYjoyciCl02K6riVYOy4ietFU6auUV4csl7BuhManOl5wn1xW+DMLExPWClIwW73htIK51wK7UWKiwApMu11iQrOE52tiwnOT5uaExIRvdiYmfDOtvycmJnyzLzHhm2n9PTEx4Zt9iQnfTOvviYkJ3+xLTPhmWn9PTEz4Zl9iwjfT+ntiYsI3+xITvpnW3xMTE77Zl5jwzbT+npiY8M2+xIRvpvX3xMSEb/YlJnwzrb8nJiZ8sy8x4Ztp/T0xMeGbfYkJ30zr74mJCd/sS0z4Zlp/T0xM+GZfYsI30/p7YmLCN/sSE76Z1t8TExO+2ZeY8M20/p6YmPDNvsSEb6b198TEhG/2JSZ8M62/JyYmfLMvMeGbaf09MTHhm32JCd9M6++JiQnf7EtM+GZaf09MTPhmX2LCN9P6e+Le0FAWyKW6OpC3JXBT0bRTYvlbtHT2DC1QHwqFmgL4LxSLBfG2RO4plNFcdRmWIx1WAhaori6BTFIWyQICFiAmBIxFSUvCAsRESRQzZVLAAsSEgLEoaUlYgJgoiWKmTApYgJgQMBYlLQkLEBMlUcyUSQELEBMCxqKkJWEBYqIkipkyKWABYkLAWMSIHv0AAAUOSURBVJS0JCxATJREMVMmBSxATAgYi5KWhAWIiZIoZsqkgAWICQFjUdKit0A95pAzwQK0kAXIApLUOo4xMa6VbEEWIAsoFugly80xGXqRPcgCZAHVAjLgIpM5yAJkAc0CvRgTJBOaOWhNFpAkFAqSCaoIZAGTBVAoSCZM9qAgWUCSSSaoFpAF0AIdbU1NVWyJYHsixkNdTW2VZBuyQAlaoHZgFweBNa5jK7WlHZsVLCZS1dVYW4JWoSyXqgXq27pQF+TYyo9WvHZ3D/ty9+EVL63EpxUQqWujB9ulWkdKKt/1jVUgy50vvWZnwbZ9+KVO1IzjTSQXJVU9SjCzHXXoKn107fM2AJw39772ETpTddS8KMGKUjJZHngcYGU6gbDycfgjdKIGkg9VMnWktDI6MAaxl9wphJmL51e0Q6yxtExFuS0JC3RUQfu1e82V3X342nY4Th5USVSTEspkfRPAigyJYOysiEEdOVAlVGGKP6sdEVgp7jWZheT5ByHWVvyGohyWigU6YjGxlrWZBi18OCbTl4BKpcYUfT5rIJb4aE6r6u7Xd3cCQVH0laU0MlgDnemQUFoa5r9OqOwlKEqjxhR9Lmuh07FxzSMd9zAeHHfsHSpT91PRV5gSyGAVpFMJJ01wjns+drwELEZZLHILtMFL9vrtqAH2RHw7IeUKoKd3RV5hSiB7kVhCxXas/i4jO2P0mKIEak1RZ7ESPk5T2xexFybu1RO1zNCDToHXgJ5SFHWFKYHMNcJhc9V20Iyp15kT9HjAgQnTUc9DqASsRlksZgt0gaXGO2woTHy2konFZ7DwF184pDFFRcuK2VyUtxKwQFm7qT47BpnvtPDPn7076/t3zn7r3L/f5qAT5uNWRkrAapTFYrbA+E6tQpscIC2Kr1WdOKXHmj9NuHJWjzTtiR4rY8VsLspbCVigLoXvpFCiMnFvj/CfUCd6LNJ1whmidvKdSqDaFHUWQ05P7Cy1nfc7rfvsXtSJWZ8BPKgzYVET7cn2XugqantR5orfApVwra1uC25a+OnR4zCNAyz+SlPkOayPrRSEIHXyKqCJPIq8yhR/9kLZCoWFkcNQV/wmoxwWuwUsgztsnpClvps3kqVrpqEdxV5fSiF/bfCEubZnFX6JhgCWQpUp/jzWwUcMhGQ//W4gUY99AsYXv7koh6VggToY7wCEEuWwIykkH1FjohSqS2nksQuGitR9HQrLQXurCInSqC6lkcsaiJqGjFuqug6AFkiy99ooIVEalaVUclk5HoZaBo1rBPB1EgxMae5eCRF6caJUakup5LMxBk88b6rlDsGkaOx9CSBE79eVSlUpnXzWHgB4IrlWODCiRrGpxcvo6XXp1JRSymklfnyi+eOkamChQk917VAZDtAMNqVUT0orr7WhCESfcD29+N7XXopCrIs0orRqScnltqYM36sbqn66S1cDi0YoG4dX4OuoMJ6mwyy5KlKCGa5vq4vgp+pWPuH0hUfGw2H2lcco+8hjDUlECVaQEs1ybeMB9klsbF+sHP/6P6/Af4fZnxVPjF85lMdHDjR2lKhtKNslbIGOylBdWYwjYPpTVheir8aXcK2grCsW6KhkCwkD1QeyAFmALEAWIAuQBcgCZAGyAFmALEAWIAuQBcgCZAGyAFmALEAWIAuQBcgCZAGyAFmALEAWIAuQBcgCZAGyAFmALEAWIAuQBcgCZAGyAFmALEAWIAv4bYH/D3paF5UVNrjZAAAAAElFTkSuQmCC;" parent="1" vertex="1">
                    <mxGeometry x="-390" y="980" width="1492.39" height="1280" as="geometry"/>
                </mxCell>
                <mxCell id="186" value="FLOW LAYOUT&amp;nbsp;&lt;br&gt;[ scenario user registration ]" style="shape=umlFrame;whiteSpace=wrap;html=1;width=150;height=60;boundedLbl=1;verticalAlign=middle;align=left;spacingLeft=5;fontSize=15;strokeColor=#FFFFFF;" parent="1" vertex="1">
                    <mxGeometry x="-510" y="910" width="1670" height="1410" as="geometry"/>
                </mxCell>
            </root>
        </mxGraphModel>
    </diagram>
</mxfile>